# This file uses centimeters as units for non-parametric coordinates.

mtllib bottom.mtl
g default
v -41.060287 -21.760466 50.526398
v -23.238111 -21.760466 58.014240
v 23.238111 -21.760466 58.014240
v 41.060284 -21.760466 44.793858
v -41.060287 -21.760466 -50.526398
v -23.238111 -21.760466 -58.014240
v 23.238111 -21.760466 -58.014240
v 41.060284 -21.760466 -44.793858
v 59.174232 -21.760466 -24.481071
v 59.174232 -21.760466 19.338078
v -59.174236 -21.760466 -24.481071
v -59.174236 -21.760466 19.338078
v 17.339163 -53.470795 17.009779
v -17.339161 -53.470795 17.009779
v -17.339161 -53.470795 -21.533512
v 17.339163 -53.470795 -21.533512
v 21.596542 -0.000079 54.829170
v -21.596542 -0.000079 54.829170
v -38.159725 -0.000079 47.752422
v -54.994087 -0.000079 18.276390
v -54.994087 -0.000079 -23.137024
v -38.159725 -0.000079 -47.752422
v -21.596542 -0.000079 -54.829170
v 21.596542 -0.000079 -54.829170
v 38.159721 -0.000079 -42.334610
v 54.994083 -0.000079 -23.137024
v 54.994083 -0.000079 18.276390
v 38.159721 -0.000079 42.334610
v 23.044830 -11.483343 57.500374
v -23.044828 -11.483343 57.500374
v -40.718765 -11.483343 50.078861
v -58.682053 -11.483343 19.166790
v -58.682053 -11.483343 -24.264231
v -40.718765 -11.483343 -50.078861
v -23.044828 -11.483343 -57.500374
v 23.044830 -11.483343 -57.500374
v 40.718765 -11.483343 -44.397099
v 58.682049 -11.483343 -24.264231
v 58.682049 -11.483343 19.166790
v 40.718765 -11.483343 44.397099
v 19.480749 0.000000 -49.351261
v 20.854195 -0.000063 18.276423
v -21.596542 -0.000079 18.276424
v -21.596544 -0.000079 -23.137018
v 20.013134 -0.000031 -23.137011
vt 0.380875 0.665661
vt 0.442506 0.680670
vt 0.438213 0.717955
vt 0.364628 0.698608
vt 0.635101 0.824333
vt 0.532484 0.831357
vt 0.285043 0.833371
vt 0.168430 0.841701
vt 0.025556 0.854549
vt 0.606629 0.679229
vt 0.592632 0.251046
vt 0.611616 0.713868
vt 0.674971 0.651379
vt 0.689972 0.685951
vt 0.384524 0.239786
vt 0.263575 0.261585
vt 0.951936 0.124891
vt 0.858429 0.053596
vt 0.811225 0.041839
vt 0.726931 0.077221
vt 0.659327 0.165290
vt 0.655092 0.244830
vt 0.637823 0.954764
vt 0.678401 0.286774
vt 0.769355 0.357779
vt 0.824637 0.358946
vt 0.180520 0.958589
vt 0.891828 0.346571
vt 0.960654 0.259532
vt 0.965836 0.180430
vt 0.774357 0.588317
vt 0.084747 0.346648
vt 0.955995 0.554730
vt 0.793470 0.625742
vt 0.833639 0.877911
vt 0.638818 0.883259
vt 0.533215 0.886799
vt 0.286928 0.887752
vt 0.172685 0.895747
vt 0.031322 0.908612
vt 0.072087 0.479890
vt 0.583076 0.070412
vt 0.773899 0.342793
vt 0.888096 0.202675
vt 0.798028 0.132074
vt 0.730159 0.219940
vt 0.818064 0.288578
vt 0.233708 0.613289
vt 0.051500 0.523866
vt 0.595158 0.487687
vt 0.460626 0.482432
vt 0.615378 0.759616
vt 0.437763 0.766244
vt 0.344623 0.745440
vt 0.207002 0.662940
vt 0.031310 0.577345
vt 0.971569 0.602188
vt 0.814933 0.670336
vt 0.707687 0.730842
vt 0.939740 0.515548
vt 0.045710 0.971102
vt 0.292634 0.950966
vt 0.527910 0.952333
vt 0.826708 0.954342
vt 0.832699 0.812360
vt 0.261615 0.446068
vt 0.175949 0.411075
vt 0.447307 0.417587
vt 0.519335 0.377410
vt 0.367212 0.091584
vt 0.257482 0.571356
vt 0.025539 0.182679
vt 0.225173 0.120578
vn -0.386708 0.053125 0.920671
vn -0.116373 0.051728 0.991858
vn -0.118484 0.148969 0.981718
vn -0.383705 0.158074 0.909826
vn 0.201435 0.052599 0.978089
vn 0.203642 0.152942 0.967026
vn 0.594894 0.051018 0.802184
vn 0.589576 0.159891 0.791729
vn -0.383705 0.158074 -0.909826
vn -0.118484 0.148969 -0.981718
vn -0.116373 0.051728 -0.991858
vn -0.386708 0.053125 -0.920671
vn 0.203642 0.152942 -0.967026
vn 0.201435 0.052599 -0.978089
vn 0.589576 0.159891 -0.791729
vn 0.594894 0.051018 -0.802184
vn 0.960878 0.051904 -0.272066
vn 0.745322 0.050078 -0.664822
vn 0.736078 0.175335 -0.653794
vn 0.946112 0.188360 -0.263427
vn 0.966152 0.050656 0.252952
vn 0.951444 0.185824 0.245404
vn 0.813720 0.049011 0.579188
vn 0.803421 0.173864 0.569461
vn -0.819803 0.051687 -0.570309
vn -0.966407 0.051767 -0.251750
vn -0.951052 0.188514 -0.244873
vn -0.808519 0.180450 -0.560121
vn -0.970656 0.050597 0.235090
vn -0.955521 0.186030 0.228849
vn -0.863587 0.050133 0.501701
vn -0.851925 0.176883 0.492886
vn 0.580509 -0.802258 0.139252
vn 0.289190 -0.912148 0.290441
vn 0.293193 -0.906680 -0.303264
vn 0.584685 -0.799251 -0.139073
vn -0.286206 -0.914036 0.287444
vn -0.567224 -0.811199 0.142177
vn -0.570871 -0.808228 -0.144476
vn -0.290172 -0.908689 -0.300140
vn 0.163567 -0.801953 0.574558
vn 0.482036 -0.753020 0.447886
vn -0.175868 -0.812215 0.556217
vn -0.453763 -0.785073 0.421616
vn -0.441338 -0.762579 -0.472964
vn -0.168245 -0.778670 -0.604456
vn 0.157565 -0.765361 -0.624016
vn 0.471297 -0.723038 -0.505069
vn 0.189735 0.247402 0.950154
vn -0.106051 0.239255 0.965148
vn -0.376613 0.259243 0.889357
vn -0.828613 0.292265 0.477475
vn -0.924598 0.309134 0.222609
vn -0.919439 0.314019 -0.236693
vn -0.786323 0.295475 -0.542577
vn -0.376613 0.259243 -0.889357
vn -0.106051 0.239255 -0.965148
vn 0.189735 0.247402 -0.950154
vn 0.578165 0.260268 -0.773296
vn 0.718196 0.283603 -0.635424
vn 0.912903 0.314835 -0.259782
vn 0.919489 0.309585 0.242274
vn 0.783250 0.284146 0.552974
vn 0.578165 0.260268 0.773296
vn 0.000001 1.000000 0.000000
vn 0.000000 1.000000 0.000000
vn -0.000000 1.000000 0.000000
vn 0.000000 1.000000 0.000000
vn -0.000000 1.000000 0.000000
vn -0.000000 1.000000 0.000000
vn 0.000000 1.000000 -0.000000
vn 0.000000 1.000000 0.000000
vn 0.000000 1.000000 -0.000001
vn 0.000000 1.000000 -0.000001
vn 0.000000 1.000000 -0.000000
vn 0.000001 1.000000 0.000000
vn 0.000003 1.000000 -0.000001
vn -0.000001 1.000000 -0.000000
vn -0.000001 1.000000 -0.000001
vn 0.000000 1.000000 -0.000000
vn 0.000000 1.000000 0.000000
s 1
g bottompos
usemtl bottom_texture
f 1/1/1 2/2/2 30/3/3 31/4/4
f 2/2/2 3/10/5 29/12/6 30/3/3
f 3/10/5 4/13/7 40/14/8 29/12/6
s 2
f 34/36/9 35/37/10 6/6/11 5/5/12
f 35/37/10 36/38/13 7/7/14 6/6/11
f 36/38/13 37/39/15 8/8/16 7/7/14
s 3
f 9/9/17 8/8/18 37/39/19 38/40/20
f 10/31/21 9/60/17 38/33/20 39/34/22
f 4/13/23 10/31/21 39/34/22 40/14/24
s 4
f 5/5/25 11/65/26 33/35/27 34/36/28
f 11/41/26 12/71/29 32/48/30 33/49/27
f 12/71/29 1/1/31 31/4/32 32/48/30
s 5
f 10/72/33 13/73/34 16/16/35 9/32/36
f 14/70/37 12/42/38 11/11/39 15/15/40
f 13/73/34 14/70/37 15/15/40 16/16/35
f 3/10/41 13/50/34 10/31/33 4/13/42
f 2/2/43 14/51/37 13/50/34 3/10/41
f 2/2/43 1/1/44 12/71/38 14/51/37
f 15/15/40 11/11/39 5/69/45 6/68/46
f 16/16/35 15/15/40 6/68/46 7/66/47
f 9/32/36 16/16/35 7/66/47 8/67/48
s 1
f 30/3/3 29/12/6 17/52/49 18/53/50
f 31/4/4 30/3/3 18/53/50 19/54/51
s 4
f 32/48/30 31/4/32 19/54/52 20/55/53
f 33/49/27 32/48/30 20/55/53 21/56/54
f 34/36/28 33/35/27 21/64/54 22/23/55
s 2
f 22/23/56 23/63/57 35/37/10 34/36/9
f 23/63/57 24/62/58 36/38/13 35/37/10
f 24/62/58 25/27/59 37/39/15 36/38/13
s 3
f 38/40/20 37/39/19 25/27/60 26/61/61
f 39/34/22 38/33/20 26/57/61 27/58/62
f 40/14/24 39/34/22 27/58/62 28/59/63
s 1
f 29/12/6 40/14/8 28/59/64 17/52/49
s 7
f 27/29/65 42/44/66 17/17/67 28/30/68
f 18/18/69 43/45/70 20/20/71 19/19/72
f 18/18/69 17/17/67 42/44/66 43/45/70
f 24/25/73 41/43/74 45/47/75 26/28/76 25/26/77
f 44/46/78 45/47/75 41/43/74 24/25/73 23/24/79
f 21/21/80 44/46/78 23/24/79 22/22/81
f 20/20/71 43/45/70 44/46/78 21/21/80
f 43/45/70 42/44/66 45/47/75 44/46/78
f 26/28/76 45/47/75 42/44/66 27/29/65
