# This file uses centimeters as units for non-parametric coordinates.

mtllib rarm.mtl
g default
v -42.833412 -136.825790 15.044468
v -70.446434 -124.873161 15.044468
v 3.770815 -8.185808 6.712282
v -8.549083 -2.852965 6.712284
v 3.770815 -8.185808 -6.712283
v -8.549087 -2.852965 -6.712283
v -42.833412 -136.825821 -15.044467
v -70.446434 -124.873161 -15.044467
v -37.709763 -125.964195 15.431796
v -37.709763 -125.964195 -15.431796
v -66.033691 -113.703804 -15.431796
v -66.033691 -113.703804 15.431796
v -7.256521 -45.124016 11.265862
v -7.256526 -45.124016 -11.265862
v -27.934189 -36.173401 -11.265861
v -27.934181 -36.173401 11.265862
v -26.036434 -96.805199 14.561322
v -26.036442 -96.805199 -14.561322
v -52.762691 -85.236389 -14.561322
v -52.762691 -85.236389 14.561322
v -46.983608 -139.586884 -12.332588
v -69.619171 -129.788773 -12.332588
v -69.619171 -129.788773 12.332589
v -46.983608 -139.586884 12.332589
v -56.031830 -151.598480 -8.800451
v -72.184410 -144.606613 -8.800451
v -72.184410 -144.606613 8.800451
v -56.031830 -151.598480 8.800451
v -69.212570 -120.884903 15.496448
v -51.871731 -119.834007 20.575729
v -1.343890 -3.104660 8.675100
v 6.617368 -6.550775 -0.000000
v -9.305143 0.341486 -0.000000
v -1.343890 -3.104660 -8.675101
v -51.871731 -119.834007 -20.575729
v -40.769978 -133.196655 -15.496448
v -69.212570 -120.884903 -15.496448
v -56.639927 -130.849487 -20.059288
v -64.972946 -150.100479 -11.880610
v -54.069958 -154.819977 0.000000
v -75.875946 -145.380966 0.000000
v -64.972946 -150.100479 11.880610
v -75.048615 -122.881065 0.000000
v -70.754349 -111.660416 0.000000
v -38.231243 -138.817932 0.000000
v -32.989109 -128.007599 0.000000
v 3.472398 -16.248516 -9.641302
v 3.472398 -16.248516 9.641304
v -14.223501 -8.588608 -9.641302
v -14.223501 -8.588608 9.641304
v -32.925514 -114.423355 -15.237842
v -32.925514 -114.423355 15.237843
v -21.582067 -98.733337 0.000000
v -39.399559 -91.020805 -19.415094
v -60.893463 -102.317070 -15.237842
v -60.893463 -102.317070 15.237843
v -57.217060 -83.308273 0.000000
v -39.399559 -91.020805 19.415094
v -3.810245 -46.615807 0.000000
v -17.595356 -40.648739 -15.021149
v -31.380461 -34.681675 0.000000
v -17.595356 -40.648739 15.021149
v -16.661781 -71.340752 -13.048971
v -16.661781 -71.340752 13.048971
v -40.612213 -60.973488 -13.048971
v -40.612213 -60.973488 13.048971
v -44.627319 -137.556747 -13.688528
v -69.751617 -126.681374 -13.688528
v -58.301392 -134.687851 -16.443453
v -69.751617 -126.681374 13.688529
v -73.391762 -128.155762 0.000000
v -44.627319 -137.556747 13.688529
v -58.301392 -134.687851 16.443453
v -43.211010 -141.219894 0.000000
v -50.734173 -147.113663 -11.880610
v -72.540161 -137.674652 -11.880610
v -72.540161 -137.674652 11.880610
v -50.734173 -147.113663 11.880610
v -56.639927 -130.849487 20.059288
v -40.769978 -133.196655 15.496448
v -54.991276 -127.040787 20.661928
v 0.000000 0.000000 -0.000000
v -54.991276 -127.040787 -20.661928
v -66.084877 -152.669250 0.000000
v -73.953011 -118.832954 0.000000
v -36.029541 -135.248611 0.000000
v 6.421714 -17.525173 -0.000000
v -5.375552 -12.418546 -12.855070
v -17.172817 -7.311950 -0.000000
v -5.375552 -12.418546 12.855072
v -28.264183 -116.441071 0.000000
v -46.909485 -108.370216 -20.317122
v -65.554779 -100.299347 0.000000
v -46.909485 -108.370216 20.317125
v -12.670034 -73.068611 0.000000
v -28.636995 -66.157120 -17.398630
v -44.603951 -59.245598 0.000000
v -28.636995 -66.157120 17.398630
v -57.189472 -132.119049 -18.251373
v -73.938995 -124.868805 0.000000
v -57.189472 -132.119049 18.251373
v -40.439945 -139.369308 0.000000
v -61.637161 -142.394165 -15.840813
v -76.174492 -136.101486 0.000000
v -61.637161 -142.394165 15.840813
v -47.099842 -148.686829 0.000000
vt 0.129937 0.083794
vt 0.245149 0.058157
vt 0.251548 0.085593
vt 0.146825 0.125909
vt 0.342858 0.040168
vt 0.347263 0.064551
vt 0.356320 0.108618
vt 0.264994 0.133502
vt 0.168805 0.172999
vt 0.485759 0.669587
vt 0.502820 0.658622
vt 0.515648 0.674788
vt 0.492468 0.696270
vt 0.517861 0.647399
vt 0.531685 0.657491
vt 0.546177 0.670093
vt 0.534243 0.687780
vt 0.520871 0.706002
vt 0.693705 0.071770
vt 0.611683 0.074431
vt 0.609729 0.034143
vt 0.692947 0.032213
vt 0.528590 0.080743
vt 0.524720 0.039814
vt 0.277729 0.517589
vt 0.155472 0.482252
vt 0.064734 0.512984
vt 0.347778 0.796464
vt 0.382510 0.798196
vt 0.369358 0.840395
vt 0.331624 0.826336
vt 0.415802 0.816053
vt 0.409905 0.858324
vt 0.387231 0.888742
vt 0.353432 0.879233
vt 0.326682 0.859161
vt 0.522781 0.017348
vt 0.608748 0.012144
vt 0.692612 0.010699
vt 0.434371 0.026162
vt 0.437482 0.049460
vt 0.443739 0.091802
vt 0.774676 0.009583
vt 0.775950 0.031225
vt 0.775944 0.071637
vt 0.730016 0.626412
vt 0.535671 0.735287
vt 0.024869 0.150822
vt 0.041318 0.179399
vt 0.073510 0.226940
vt 0.438840 0.682946
vt 0.463140 0.654243
vt 0.640168 0.621298
vt 0.576005 0.664809
vt 0.553559 0.626444
vt 0.517851 0.625914
vt 0.774768 0.135327
vt 0.694706 0.134141
vt 0.488943 0.635938
vt 0.203697 0.241709
vt 0.770081 0.229836
vt 0.695360 0.226985
vt 0.121296 0.293237
vt 0.255123 0.334143
vt 0.186741 0.380153
vt 0.621432 0.229836
vt 0.615359 0.137191
vt 0.547714 0.237106
vt 0.535644 0.144212
vt 0.454968 0.156886
vt 0.372734 0.175591
vt 0.474142 0.250773
vt 0.400398 0.270230
vt 0.288845 0.203107
vt 0.690484 0.485956
vt 0.744313 0.490093
vt 0.327242 0.298112
vt 0.353597 0.589856
vt 0.394016 0.558288
vt 0.636848 0.486677
vt 0.583979 0.491028
vt 0.483678 0.513636
vt 0.532691 0.500358
vt 0.759032 0.361059
vt 0.694233 0.356966
vt 0.437586 0.533164
vt 0.325276 0.451436
vt 0.271207 0.490070
vt 0.629907 0.358901
vt 0.566306 0.365294
vt 0.503725 0.377816
vt 0.442270 0.395554
vt 0.155471 0.498101
vt 0.073088 0.523625
vt 0.258571 0.535914
vt 0.503213 0.755780
vt 0.399178 0.705742
vt 0.306960 0.730607
vt 0.277729 0.715026
vt 0.259040 0.698980
vt 0.164295 0.763243
vt 0.163394 0.746913
vt 0.407747 0.974858
vt 0.504412 0.915667
vt 0.073531 0.732496
vt 0.080781 0.721841
vt 0.020200 0.667021
vt 0.031902 0.662827
vt 0.259504 0.885883
vt 0.315110 0.951518
vt 0.020216 0.585349
vt 0.031657 0.588615
vt 0.258702 0.802356
vt 0.391243 0.758251
vt 0.331705 0.769082
vt 0.450002 0.794223
vt 0.449772 0.880308
vt 0.396651 0.923166
vt 0.337246 0.911794
vt 0.299090 0.870432
vt 0.299171 0.815308
vt 0.382785 0.420377
vt 0.596225 0.622426
vt 0.565409 0.705973
vt 0.493378 0.742860
vt 0.684884 0.622358
vt 0.047726 0.593359
vt 0.048335 0.656775
vt 0.084365 0.538886
vt 0.090552 0.706606
vt 0.160884 0.724327
vt 0.234275 0.679387
vt 0.233365 0.557998
vt 0.154379 0.520008
vn 0.463365 -0.591234 0.660102
vn 0.630983 -0.320640 0.706435
vn -0.016523 -0.038171 0.999135
vn -0.141636 -0.327207 0.934278
vn -0.665624 0.240614 0.706434
vn -0.748201 -0.066792 0.660101
vn 0.006718 0.015520 0.999857
vn -0.641694 0.297303 0.706993
vn 0.655939 -0.264394 0.706993
vn 0.759726 0.289840 0.582073
vn 0.934766 0.355264 0.000000
vn 0.397244 0.917713 -0.000000
vn 0.277023 0.639977 0.716720
vn -0.380720 0.924690 0.000000
vn -0.308625 0.752291 0.582073
vn 0.277023 0.639977 -0.716720
vn -0.308625 0.752291 -0.582073
vn 0.759726 0.289840 -0.582073
vn 0.655939 -0.264394 -0.706993
vn 0.630984 -0.320640 -0.706434
vn -0.016522 -0.038171 -0.999135
vn 0.006718 0.015520 -0.999857
vn -0.665624 0.240613 -0.706435
vn -0.641694 0.297303 -0.706993
vn -0.141636 -0.327207 -0.934278
vn -0.748201 -0.066793 -0.660101
vn 0.463366 -0.591234 -0.660102
vn 0.170200 -0.852216 -0.494733
vn 0.233006 -0.972475 0.000000
vn -0.397244 -0.917713 0.000000
vn -0.317753 -0.734072 -0.600143
vn -0.868512 -0.495669 -0.000000
vn -0.737845 -0.459157 -0.494733
vn -0.317753 -0.734072 0.600143
vn -0.737845 -0.459157 0.494733
vn 0.170200 -0.852216 0.494733
vn -0.933442 0.358730 0.000000
vn -0.999035 0.043927 -0.000000
vn -0.910864 0.412707 0.000000
vn 0.900396 -0.435071 0.000000
vn 0.715763 -0.698343 -0.000000
vn 0.924300 -0.381667 0.000000
vn 0.962953 -0.269671 -0.000000
vn 0.697520 -0.151599 0.700346
vn 0.697520 -0.151599 -0.700346
vn 0.053647 0.123934 -0.990839
vn -0.587911 0.404817 -0.700345
vn -0.855659 0.517540 0.000000
vn -0.587911 0.404817 0.700345
vn 0.053647 0.123934 0.990839
vn 0.663860 -0.245040 -0.706573
vn 0.931661 -0.363329 -0.000000
vn 0.663860 -0.245040 0.706573
vn 0.940803 -0.338953 -0.000000
vn 0.673854 -0.219369 0.705548
vn 0.673854 -0.219369 -0.705548
vn 0.014565 0.033648 -0.999328
vn 0.024894 0.057510 -0.998035
vn -0.633003 0.316324 -0.706573
vn -0.621127 0.341180 -0.705548
vn -0.633003 0.316324 0.706573
vn -0.902531 0.430625 0.000000
vn -0.891015 0.453973 -0.000000
vn -0.621127 0.341180 0.705548
vn 0.014565 0.033648 0.999328
vn 0.024894 0.057510 0.998035
vn 0.679586 -0.203937 -0.704679
vn 0.945916 -0.324413 -0.000000
vn 0.679586 -0.203937 0.704679
vn 0.031002 0.071620 -0.996950
vn -0.613798 0.355921 -0.704678
vn -0.883912 0.467653 0.000000
vn -0.613798 0.355921 0.704678
vn 0.031002 0.071620 0.996950
vn 0.680028 -0.202725 -0.704602
vn 0.946344 -0.323162 -0.000000
vn 0.680028 -0.202725 0.704602
vn 0.031525 0.072829 -0.996846
vn -0.613217 0.357072 -0.704603
vn -0.613217 0.357073 0.704602
vn -0.883294 0.468820 0.000000
vn 0.031525 0.072829 0.996846
vn 0.178740 -0.847069 -0.500527
vn -0.269085 -0.621638 -0.735636
vn -0.739936 -0.449411 -0.500524
vn -0.091530 -0.211452 -0.973093
vn -0.727574 0.042773 -0.684695
vn 0.529135 -0.501208 -0.684695
vn -0.944185 -0.329416 -0.000000
vn -0.739937 -0.449411 0.500524
vn -0.984550 0.175103 0.000000
vn -0.727573 0.042773 0.684695
vn -0.269084 -0.621638 0.735636
vn 0.178743 -0.847068 0.500527
vn -0.091530 -0.211452 0.973093
vn 0.529135 -0.501207 0.684695
vn 0.406020 -0.913864 0.000000
vn 0.801491 -0.598007 -0.000000
vn 0.524754 -0.507724 -0.683264
vn -0.102587 -0.236997 -0.966079
vn -0.729326 0.035121 -0.683264
vn -0.989170 0.146773 0.000000
vn -0.729326 0.035121 0.683264
vn -0.102587 -0.236997 0.966079
vn 0.524754 -0.507724 0.683264
vn 0.783996 -0.620766 -0.000000
s 1
g rarmpos
usemtl lambert4SG
f 1/1/1 80/4/2 81/3/3 79/2/4
f 79/2/4 81/3/3 29/6/5 2/5/6
f 81/3/3 30/8/7 12/7/8 29/6/5
f 80/4/2 9/9/9 30/8/7 81/3/3
f 3/10/10 32/13/11 82/12/12 31/11/13
f 31/11/13 82/12/12 33/15/14 4/14/15
f 82/12/12 34/17/16 6/16/17 33/15/14
f 32/13/11 5/18/18 34/17/16 82/12/12
f 10/19/19 36/22/20 83/21/21 35/20/22
f 35/20/22 83/21/21 37/24/23 11/23/24
f 83/21/21 38/38/25 8/37/26 37/24/23
f 36/22/20 7/39/27 38/38/25 83/21/21
f 25/28/28 40/31/29 84/30/30 39/29/31
f 39/29/31 84/30/30 41/33/32 26/32/33
f 84/30/30 42/35/34 27/34/35 41/33/32
f 40/31/29 28/36/36 42/35/34 84/30/30
f 2/5/6 29/6/5 85/41/37 43/40/38
f 43/40/38 85/41/37 37/24/23 8/37/26
f 85/41/37 44/42/39 11/23/24 37/24/23
f 29/6/5 12/7/8 44/42/39 85/41/37
f 7/39/27 36/22/20 86/44/40 45/43/41
f 45/48/41 86/49/40 80/4/2 1/1/1
f 86/49/40 46/50/42 9/9/9 80/4/2
f 36/22/20 10/19/19 46/45/42 86/44/40
f 87/51/43 32/13/11 3/10/10 48/52/44
f 47/47/45 5/18/18 32/13/11 87/125/43
f 5/18/18 47/47/45 88/124/46 34/17/16
f 34/17/16 88/124/46 49/54/47 6/16/17
f 89/55/48 33/15/14 6/16/17 49/54/47
f 50/56/49 4/14/15 33/15/14 89/55/48
f 90/59/50 31/11/13 4/14/15 50/56/49
f 48/52/44 3/10/10 31/11/13 90/59/50
f 10/19/19 51/58/51 91/57/52 46/45/42
f 46/50/42 91/63/52 52/60/53 9/9/9
f 91/63/52 53/65/54 17/64/55 52/60/53
f 51/58/51 18/62/56 53/61/54 91/57/52
f 18/62/56 51/58/51 92/67/57 54/66/58
f 54/66/58 92/67/57 55/69/59 19/68/60
f 92/67/57 35/20/22 11/23/24 55/69/59
f 51/58/51 10/19/19 35/20/22 92/67/57
f 12/7/8 56/71/61 93/70/62 44/42/39
f 44/42/39 93/70/62 55/69/59 11/23/24
f 93/70/62 57/72/63 19/68/60 55/69/59
f 56/71/61 20/73/64 57/72/63 93/70/62
f 9/9/9 52/60/53 94/74/65 30/8/7
f 30/8/7 94/74/65 56/71/61 12/7/8
f 94/74/65 58/77/66 20/73/64 56/71/61
f 52/60/53 17/64/55 58/77/66 94/74/65
f 14/75/67 47/126/45 87/46/43 59/76/68
f 87/51/43 48/52/44 13/79/69 59/78/68
f 88/53/46 47/126/45 14/75/67 60/80/70
f 15/81/71 49/123/47 88/53/46 60/80/70
f 50/56/49 89/55/48 61/83/72 16/82/73
f 89/55/48 49/123/47 15/81/71 61/83/72
f 48/52/44 90/59/50 62/86/74 13/79/69
f 90/59/50 50/56/49 16/82/73 62/86/74
f 18/62/56 63/85/75 95/84/76 53/61/54
f 53/65/54 95/88/76 64/87/77 17/64/55
f 95/88/76 59/78/68 13/79/69 64/87/77
f 63/85/75 14/75/67 59/76/68 95/84/76
f 14/75/67 63/85/75 96/89/78 60/80/70
f 60/80/70 96/89/78 65/90/79 15/81/71
f 96/89/78 54/66/58 19/68/60 65/90/79
f 63/85/75 18/62/56 54/66/58 96/89/78
f 20/73/64 66/92/80 97/91/81 57/72/63
f 57/72/63 97/91/81 65/90/79 19/68/60
f 97/91/81 61/83/72 15/81/71 65/90/79
f 66/92/80 16/82/73 61/83/72 97/91/81
f 17/64/55 64/87/77 98/122/82 58/77/66
f 58/77/66 98/122/82 66/92/80 20/73/64
f 98/122/82 62/86/74 16/82/73 66/92/80
f 64/87/77 13/79/69 62/86/74 98/122/82
f 7/27/27 67/94/83 99/93/84 38/26/25
f 38/26/25 99/93/84 68/95/85 8/25/26
f 99/93/84 69/134/86 22/133/87 68/95/85
f 67/94/83 21/129/88 69/134/86 99/93/84
f 8/25/26 68/95/85 100/100/89 43/99/38
f 43/99/38 100/100/89 70/102/90 2/101/6
f 100/100/89 71/132/91 23/131/92 70/102/90
f 68/95/85 22/133/87 71/132/91 100/100/89
f 2/101/6 70/102/90 101/106/93 79/105/4
f 79/105/4 101/106/93 72/108/94 1/107/1
f 101/106/93 73/130/95 24/128/96 72/108/94
f 70/102/90 23/131/92 73/130/95 101/106/93
f 1/107/1 72/108/94 102/112/97 45/111/41
f 45/111/41 102/112/97 67/94/83 7/27/27
f 102/112/97 74/127/98 21/129/88 67/94/83
f 72/108/94 24/128/96 74/127/98 102/112/97
f 21/98/88 75/115/99 103/114/100 69/97/86
f 69/97/86 103/114/100 76/116/101 22/96/87
f 103/114/100 39/29/31 26/32/33 76/116/101
f 75/115/99 25/28/28 39/29/31 103/114/100
f 22/96/87 76/116/101 104/117/102 71/104/91
f 71/104/91 104/117/102 77/118/103 23/103/92
f 104/117/102 41/33/32 27/34/35 77/118/103
f 76/116/101 26/32/33 41/33/32 104/117/102
f 23/103/92 77/118/103 105/119/104 73/110/95
f 73/110/95 105/119/104 78/120/105 24/109/96
f 105/119/104 42/35/34 28/36/36 78/120/105
f 77/118/103 27/34/35 42/35/34 105/119/104
f 24/109/96 78/120/105 106/121/106 74/113/98
f 74/113/98 106/121/106 75/115/99 21/98/88
f 106/121/106 40/31/29 25/28/28 75/115/99
f 78/120/105 28/36/36 40/31/29 106/121/106
