# This file uses centimeters as units for non-parametric coordinates.

mtllib torso.mtl
g default
v -40.354370 0.000000 50.526398
v -22.532207 0.000000 58.014233
v 23.238111 0.000000 58.014240
v 41.060287 0.000000 44.793861
v -33.739979 91.457016 39.388641
v -19.095181 91.457016 45.225914
v 19.095169 91.457016 45.225918
v 33.739979 91.457016 34.919765
v -20.160044 133.808670 24.438795
v -11.409601 133.401245 27.755386
v 11.409602 133.401245 27.755386
v 20.160044 134.120529 21.899694
v -29.053753 135.505554 10.624584
v 29.053753 135.505554 10.624580
v -29.053753 138.167435 -11.045710
v 29.053753 138.167435 -11.045714
v -20.160044 139.306732 -20.320408
v -11.409601 139.714111 -23.636997
v 11.409605 139.714111 -23.636997
v 20.160044 138.994827 -17.781305
v -33.739979 91.457016 -39.388649
v -19.095181 91.457016 -45.225918
v 19.095181 91.457016 -45.225918
v 33.739979 91.457016 -34.919765
v -41.060287 0.000000 -50.526398
v -23.238111 0.000000 -58.014240
v 23.238111 0.000000 -58.014240
v 41.060287 0.000000 -44.793858
v 59.174240 0.000000 -24.481096
v 59.174232 0.000000 19.338095
v 48.624546 91.457016 -19.084614
v 48.624546 91.457016 15.075305
v -59.174232 0.000000 -24.481071
v -58.468323 0.000000 19.338078
v -48.624554 91.457016 -19.084610
v -48.624546 91.457016 15.075314
v -17.552343 148.513748 12.555452
v -10.960120 148.513779 14.126697
v -8.828380 150.830734 4.200731
v -18.658957 148.513779 3.752677
v 10.840194 148.513779 14.031409
v 8.807181 150.830734 4.200730
v 17.385601 148.513748 12.254756
v 18.557617 148.513779 3.657629
v -9.596706 150.830734 -8.369017
v -18.658960 148.513779 -8.971539
v 9.575499 150.830734 -8.369017
v 18.557617 148.513779 -8.876496
v -9.123337 148.513779 -16.177431
v -17.552341 148.513779 -14.615988
v 9.003410 148.513779 -16.082138
v 17.385601 148.513779 -14.315286
v 27.061878 -0.000174 17.009779
v -26.355972 -0.000174 17.009779
v -27.061878 -0.000174 -21.533512
v 27.061878 -0.000174 -21.533512
v 16.241076 117.323959 35.516323
v -16.241074 117.323959 35.516323
v -28.696953 117.323959 30.932262
v -41.356762 117.323959 11.838780
v -41.356762 117.323959 -15.963985
v -28.696953 117.323959 -30.932262
v -16.241074 117.323959 -35.516323
v 16.241076 117.323959 -35.516323
v 28.696953 117.323959 -27.422808
v 41.356762 117.323959 -15.963985
v 41.356762 117.323959 11.838769
v 28.696951 117.323959 27.422798
v 21.596546 55.809196 54.829170
v -21.596546 55.809196 54.829170
v -38.159733 55.809196 47.752407
v -54.994087 55.809196 18.276390
v -54.994095 55.809196 -23.137012
v -38.159725 55.809196 -47.752422
v -21.596542 55.809196 -54.829170
v 21.596542 55.809196 -54.829170
v 38.159725 55.809196 -42.334610
v 54.994087 55.809196 -23.137009
v 54.994087 55.809196 18.276382
v 38.159725 55.809196 42.334610
v 23.044846 21.686840 57.500374
v -23.044830 21.686840 57.500374
v -40.718761 21.686840 50.078861
v -58.682053 21.686840 19.166798
v -58.682068 21.686840 -24.264223
v -40.718761 21.686840 -50.078861
v -23.044830 21.686840 -57.500374
v 23.044830 21.686840 -57.500374
v 40.718761 21.686840 -44.397099
v 58.682053 21.686840 -24.264246
v 58.682045 21.686840 19.166798
v 40.718758 21.686840 44.397099
vt 0.575487 0.730036
vt 0.581474 0.792050
vt 0.647640 0.921695
vt 0.710876 0.952855
vt 0.348628 0.033057
vt 0.433130 0.031533
vt 0.434484 0.114676
vt 0.365569 0.126401
vt 0.602003 0.037533
vt 0.595323 0.115186
vt 0.684907 0.050412
vt 0.670320 0.126348
vt 0.413143 0.353459
vt 0.460463 0.345084
vt 0.472469 0.428363
vt 0.433567 0.435323
vt 0.306208 0.937104
vt 0.576658 0.341672
vt 0.569973 0.424967
vt 0.123459 0.949347
vt 0.276641 0.929191
vt 0.243959 0.941508
vt 0.183988 0.939597
vt 0.153282 0.945885
vt 0.304242 0.805796
vt 0.267797 0.803509
vt 0.168395 0.801330
vt 0.125664 0.808514
vt 0.872609 0.593004
vt 0.280623 0.564519
vt 0.159379 0.559224
vt 0.094116 0.562431
vt 0.959668 0.825677
vt 0.930330 0.904035
vt 0.808397 0.966774
vt 0.072539 0.819324
vt 0.629893 0.351556
vt 0.613350 0.433781
vt 0.335062 0.585321
vt 0.773634 0.571367
vt 0.645612 0.628388
vt 0.349817 0.815826
vt 0.467743 0.549401
vt 0.489323 0.546258
vt 0.494264 0.581448
vt 0.451456 0.577783
vt 0.562027 0.543269
vt 0.560558 0.578272
vt 0.583654 0.545178
vt 0.602392 0.570761
vt 0.271630 0.985473
vt 0.153112 0.980684
vt 0.237256 0.971958
vt 0.260196 0.974889
vt 0.188880 0.970546
vt 0.165645 0.972232
vt 0.769102 0.873550
vt 0.694793 0.721767
vt 0.804738 0.669031
vt 0.876727 0.819551
vt 0.490831 0.631460
vt 0.450633 0.634084
vt 0.639496 0.603616
vt 0.568869 0.627614
vt 0.331902 0.868960
vt 0.292766 0.870356
vt 0.258521 0.875415
vt 0.173880 0.873025
vt 0.137150 0.880768
vt 0.093870 0.888264
vt 0.493477 0.665409
vt 0.456337 0.658938
vt 0.569139 0.661303
vt 0.605239 0.650300
vt 0.795197 0.078399
vt 0.941468 0.129309
vt 0.370304 0.743103
vt 0.317048 0.719149
vt 0.275895 0.707578
vt 0.164039 0.705871
vt 0.113565 0.711270
vt 0.049990 0.724377
vt 0.915537 0.201455
vt 0.773652 0.151246
vt 0.703969 0.373408
vt 0.807001 0.423696
vt 0.751338 0.503037
vt 0.671879 0.452800
vt 0.391519 0.675054
vt 0.330404 0.638157
vt 0.280599 0.618741
vt 0.160059 0.616920
vt 0.100393 0.620406
vt 0.027726 0.634611
vt 0.057375 0.151716
vt 0.209446 0.083231
vt 0.238662 0.161373
vt 0.092037 0.226606
vt 0.227470 0.449213
vt 0.329225 0.387616
vt 0.369351 0.465739
vt 0.292933 0.524990
vt 0.417485 0.520363
vt 0.460453 0.489217
vt 0.367560 0.581857
vt 0.488210 0.482024
vt 0.558146 0.479230
vt 0.588826 0.489425
vt 0.629914 0.510684
vt 0.684557 0.565702
vt 0.447090 0.230052
vt 0.584413 0.227682
vt 0.390526 0.239224
vt 0.282912 0.274840
vt 0.150758 0.340247
vt 0.739745 0.261300
vt 0.870107 0.312992
vt 0.648375 0.237921
vt 0.608746 0.625826
vt 0.416799 0.615625
vt 0.971048 0.758964
vt 0.908392 0.636854
vt 0.015963 0.576804
vt 0.403568 0.631755
vn -0.387224 0.012605 0.921900
vn -0.113389 0.020831 0.993332
vn -0.119059 0.058226 0.991178
vn -0.388188 0.059147 0.919680
vn 0.202526 0.024956 0.978959
vn 0.203893 0.061471 0.977061
vn 0.595495 0.024201 0.802994
vn 0.596325 0.063949 0.800192
vn -0.356738 0.297684 0.885507
vn -0.106137 0.299306 0.948236
vn -0.099053 0.388159 0.916254
vn -0.324959 0.394479 0.859528
vn 0.185635 0.300073 0.935680
vn 0.174272 0.392778 0.902970
vn 0.555839 0.280909 0.782389
vn 0.510899 0.387346 0.767428
vn -0.512719 0.726542 0.457446
vn -0.056652 0.789271 0.611427
vn -0.092960 0.984502 0.148711
vn -0.617148 0.775930 0.130621
vn 0.082794 0.784650 0.614385
vn 0.093902 0.984219 0.149988
vn 0.515669 0.712696 0.475551
vn 0.611456 0.779946 0.133440
vn -0.119515 0.980653 -0.155034
vn -0.601952 0.795220 -0.072662
vn 0.599024 0.796802 -0.079232
vn 0.121048 0.980177 -0.156844
vn -0.033831 0.964582 -0.261605
vn -0.138979 0.973068 -0.183913
vn 0.034125 0.963816 -0.264376
vn 0.143382 0.971235 -0.190114
vn -0.326711 0.414000 -0.849626
vn -0.097951 0.407582 -0.907900
vn -0.106137 0.299306 -0.948236
vn -0.356738 0.297684 -0.885507
vn 0.170564 0.411169 -0.895460
vn 0.185635 0.300073 -0.935680
vn 0.514022 0.405167 -0.756057
vn 0.555839 0.280909 -0.782389
vn -0.388063 0.063860 -0.919418
vn -0.117468 0.059550 -0.991290
vn -0.116026 0.024536 -0.992943
vn -0.387131 0.025203 -0.921680
vn 0.203459 0.061392 -0.977157
vn 0.201456 0.024952 -0.979180
vn 0.596325 0.063949 -0.800192
vn 0.595495 0.024201 -0.802994
vn 0.961966 0.024621 -0.272059
vn 0.746047 0.023755 -0.665469
vn 0.746082 0.069368 -0.662231
vn 0.960156 0.076380 -0.268824
vn 0.967148 0.024029 0.253078
vn 0.965268 0.075044 0.250252
vn 0.814478 0.023248 0.579728
vn 0.814086 0.069157 0.576612
vn 0.933100 0.237600 -0.269944
vn 0.706077 0.245345 -0.664275
vn 0.635789 0.380205 -0.671727
vn 0.878384 0.395155 -0.268874
vn 0.938787 0.233077 0.253681
vn 0.889484 0.386928 0.243115
vn 0.780060 0.239215 0.578172
vn 0.724285 0.375201 0.578476
vn -0.820653 0.024519 -0.570901
vn -0.968920 0.014707 -0.246939
vn -0.966286 0.072327 -0.247105
vn -0.820065 0.072145 -0.567705
vn -0.970586 0.001567 0.240748
vn -0.969976 0.066167 0.234026
vn -0.864666 -0.004358 0.502328
vn -0.864196 0.059540 0.499620
vn -0.781880 0.249802 -0.571195
vn -0.938755 0.237659 -0.249515
vn -0.884487 0.394912 -0.248450
vn -0.717923 0.388439 -0.577669
vn -0.943405 0.233417 0.235594
vn -0.892833 0.388861 0.227236
vn -0.830530 0.241496 0.501896
vn -0.773081 0.384163 0.504743
vn -0.741310 0.632923 0.223313
vn -0.462216 0.653208 0.599729
vn -0.740466 0.669728 -0.056342
vn -0.074308 0.641505 -0.763511
vn -0.228983 0.614282 -0.755132
vn -0.228983 0.614282 -0.755132
vn -0.060003 0.643211 -0.763334
vn -0.677439 0.612514 -0.407313
vn -0.677439 0.612514 -0.407313
vn 0.115223 0.628347 -0.769353
vn 0.099154 0.631808 -0.768757
vn 0.357813 0.553606 -0.751991
vn 0.357813 0.553606 -0.751991
vn -0.047972 0.668473 0.742188
vn 0.070223 0.664301 0.744159
vn 0.507232 0.616984 0.601703
vn 0.733955 0.638924 0.230406
vn 0.738987 0.671423 -0.055580
vn 0.649323 0.574973 -0.497781
vn 0.649323 0.574973 -0.497781
vn 0.000005 -1.000000 0.000001
vn 0.000002 -1.000000 0.000002
vn 0.000002 -1.000000 -0.000002
vn 0.000005 -1.000000 -0.000001
vn -0.000002 -1.000000 0.000002
vn -0.000005 -1.000000 0.000001
vn -0.000005 -1.000000 -0.000001
vn -0.000002 -1.000000 -0.000002
vn 0.000001 -1.000000 0.000004
vn 0.000004 -1.000000 0.000004
vn -0.000001 -1.000000 0.000004
vn -0.000004 -1.000000 0.000004
vn -0.000004 -1.000000 -0.000004
vn -0.000001 -1.000000 -0.000005
vn 0.000001 -1.000000 -0.000005
vn 0.000004 -1.000000 -0.000005
vn 0.145971 0.463254 0.874121
vn -0.078351 0.451480 0.888834
vn -0.297587 0.482739 0.823653
vn -0.698052 0.527339 0.484394
vn -0.807850 0.545024 0.224337
vn -0.798903 0.551752 -0.239423
vn -0.651204 0.518008 -0.554618
vn -0.310298 0.502511 -0.806969
vn -0.082564 0.482448 -0.872024
vn 0.149060 0.491304 -0.858139
vn 0.488247 0.498134 -0.716573
vn 0.569058 0.501990 -0.651291
vn 0.786238 0.556877 -0.267802
vn 0.805479 0.540264 0.243553
vn 0.661889 0.501640 0.557010
vn 0.468048 0.488036 0.736717
vn -0.112971 0.170945 0.978783
vn 0.195018 0.172153 0.965573
vn -0.380482 0.173351 0.908396
vn -0.959951 0.150924 0.236042
vn -0.854191 0.151326 0.497451
vn -0.954915 0.154584 -0.253460
vn -0.809981 0.157522 -0.564905
vn -0.112971 0.170945 -0.978783
vn -0.380482 0.173351 -0.908396
vn 0.195018 0.172153 -0.965573
vn 0.586268 0.165818 -0.792965
vn 0.949139 0.154622 -0.274277
vn 0.736360 0.154739 -0.658657
vn 0.955306 0.150808 0.254259
vn 0.804827 0.149479 0.574378
vn 0.586268 0.165818 0.792965
vn 0.000000 1.000000 0.000001
vn 0.000000 1.000000 0.000001
vn 0.000000 1.000000 0.000001
vn 0.000000 1.000000 0.000001
s 1
g torsopos
usemtl lambert2SG
f 1/5/1 2/6/2 82/7/3 83/8/4
f 2/6/2 3/9/5 81/10/6 82/7/3
f 3/9/5 4/11/7 92/12/8 81/10/6
f 5/13/9 6/14/10 58/15/11 59/16/12
f 6/14/10 7/18/13 57/19/14 58/15/11
f 7/18/13 8/37/15 68/38/16 57/19/14
s 3
f 37/43/17 38/44/18 39/45/19 40/46/20
f 38/44/18 41/47/21 42/48/22 39/45/19
f 41/47/21 43/49/23 44/50/24 42/48/22
f 40/46/20 39/45/19 45/61/25 46/62/26
f 42/48/22 44/50/24 48/119/27 47/64/28
f 46/62/26 45/61/25 49/71/29 50/72/30
f 45/61/25 47/64/28 51/73/31 49/71/29
f 47/64/28 48/119/27 52/74/32 51/73/31
s 4
f 62/66/33 63/67/34 22/26/35 21/25/36
f 63/67/34 64/68/37 23/27/38 22/26/35
f 64/68/37 65/69/39 24/28/40 23/27/38
f 86/90/41 87/91/42 26/30/43 25/39/44
f 87/91/42 88/92/45 27/31/46 26/30/43
f 88/92/45 89/93/47 28/32/48 27/31/46
s 6
f 29/123/49 28/32/50 89/93/51 90/94/52
f 30/75/53 29/76/49 90/83/52 91/84/54
f 4/11/55 30/75/53 91/84/54 92/12/56
f 31/36/57 24/28/58 65/69/59 66/70/60
f 32/85/61 31/86/57 66/87/60 67/88/62
f 8/37/63 32/85/61 67/88/62 68/38/64
s 8
f 25/39/65 33/124/66 85/89/67 86/90/68
f 33/95/66 34/96/69 84/97/70 85/98/67
f 34/96/69 1/5/71 83/8/72 84/97/70
f 21/25/73 35/42/74 61/65/75 62/66/76
f 35/99/74 36/100/77 60/101/78 61/102/75
f 36/100/77 5/13/79 59/16/80 60/101/78
s 3
f 13/103/81 9/104/82 37/43/17 40/46/20
f 15/105/83 13/103/81 40/46/20 46/120/26
s 10
f 18/22/84 17/21/85 50/54/86 49/53/87
s 3
f 17/21/88 15/17/83 46/51/26 50/54/89
s 10
f 19/23/90 18/22/84 49/53/87 51/55/91
f 20/24/92 19/23/90 51/55/91 52/56/93
s 3
f 10/106/94 38/44/18 37/43/17 9/104/82
f 11/107/95 41/47/21 38/44/18 10/106/94
f 12/108/96 43/49/23 41/47/21 11/107/95
f 14/109/97 44/50/24 43/49/23 12/108/96
f 16/110/98 48/63/27 44/50/24 14/109/97
f 20/24/99 52/56/100 48/52/27 16/20/98
s 11
f 30/35/101 53/57/102 56/60/103 29/34/104
f 54/58/105 34/41/106 33/40/107 55/59/108
f 53/57/102 54/58/105 55/59/108 56/60/103
f 3/3/109 53/57/102 30/35/101 4/4/110
f 2/2/111 54/58/105 53/57/102 3/3/109
f 2/2/111 1/1/112 34/41/106 54/58/105
f 55/59/108 33/40/107 25/29/113 26/122/114
f 56/60/103 55/59/108 26/122/114 27/121/115
f 29/34/104 56/60/103 27/121/115 28/33/116
s 1
f 58/15/11 57/19/14 11/107/117 10/106/118
f 59/16/12 58/15/11 10/106/118 9/104/119
s 8
f 60/101/78 59/16/80 9/104/120 13/103/121
f 61/102/75 60/101/78 13/103/121 15/105/122
f 62/66/76 61/65/75 15/17/122 17/21/123
s 4
f 17/21/124 18/22/125 63/67/34 62/66/33
f 18/22/125 19/23/126 64/68/37 63/67/34
f 19/23/126 20/24/127 65/69/39 64/68/37
s 6
f 66/70/60 65/69/59 20/24/128 16/20/129
f 67/88/62 66/87/60 16/110/129 14/109/130
f 68/38/64 67/88/62 14/109/130 12/108/131
s 1
f 57/19/14 68/38/16 12/108/132 11/107/117
f 70/111/133 69/112/134 7/18/13 6/14/10
f 71/113/135 70/111/133 6/14/10 5/13/9
s 8
f 72/114/136 71/113/137 5/13/79 36/100/77
f 73/115/138 72/114/136 36/100/77 35/99/74
f 74/78/139 73/77/138 35/42/74 21/25/73
s 4
f 21/25/36 22/26/35 75/79/140 74/78/141
f 22/26/35 23/27/38 76/80/142 75/79/140
f 23/27/38 24/28/40 77/81/143 76/80/142
s 6
f 78/82/144 77/81/145 24/28/58 31/36/57
f 79/116/146 78/117/144 31/86/57 32/85/61
f 80/118/147 79/116/146 32/85/61 8/37/63
s 1
f 69/112/134 80/118/148 8/37/15 7/18/13
f 82/7/3 81/10/6 69/112/134 70/111/133
f 83/8/4 82/7/3 70/111/133 71/113/135
s 8
f 84/97/70 83/8/72 71/113/137 72/114/136
f 85/98/67 84/97/70 72/114/136 73/115/138
f 86/90/68 85/89/67 73/77/138 74/78/139
s 4
f 74/78/141 75/79/140 87/91/42 86/90/41
f 75/79/140 76/80/142 88/92/45 87/91/42
f 76/80/142 77/81/143 89/93/47 88/92/45
s 6
f 90/94/52 89/93/51 77/81/145 78/82/144
f 91/84/54 90/83/52 78/117/144 79/116/146
f 92/12/56 91/84/54 79/116/146 80/118/147
s 1
f 81/10/6 92/12/8 80/118/148 69/112/134
s off
f 42/48/149 47/64/150 45/61/151 39/45/152
