# This file uses centimeters as units for non-parametric coordinates.

mtllib head.mtl
g default
v -28.806332 22.302708 28.806334
v 28.806332 22.302708 28.806334
v 36.384365 51.109032 36.384365
v -36.384365 14.724665 0.000000
v 36.384361 14.724665 -0.000000
v -0.000000 14.724665 36.384365
v -36.376316 51.109032 36.384365
v 0.000000 51.109032 49.690926
v 0.000000 1.418118 -0.000000
v 0.000000 31.271948 46.352001
v -19.837088 51.109032 46.352001
v 17.087393 17.228851 33.880173
v 33.880173 34.021641 33.880173
v 19.837088 51.109032 46.352001
v 0.008048 70.946152 46.352001
v 33.888222 68.196419 33.880173
v -33.872124 68.196419 33.880173
v -33.872124 17.228851 -17.087393
v 0.008048 4.757013 -19.837088
v -19.837088 4.757044 0.000000
v 33.888218 17.228851 -17.087393
v 19.837088 4.757044 0.000000
v 0.000000 4.757044 19.837088
v 33.880173 17.228851 17.087393
v -33.880173 17.228851 17.087393
v 46.360050 31.271948 0.000000
v 46.360050 51.109032 19.837088
v -46.343960 31.271948 0.000000
v -46.343960 51.109032 19.837088
v -17.087393 17.228851 33.880173
v -33.880173 34.021641 33.880173
v -18.462236 32.646793 43.209499
v 18.462236 32.646793 43.209499
v 18.470285 69.571274 43.209499
v -18.454191 69.571274 43.209503
v -18.454191 7.899528 -18.462236
v 18.470285 7.899528 -18.462236
v 18.462236 7.899528 18.462236
v -18.462236 7.899528 18.462236
v 43.209499 32.646793 18.462236
v -43.201450 32.646793 -18.462236
v -43.209499 32.646793 18.462236
v 34.809231 68.621826 34.801193
v 18.936726 70.258629 44.264587
v 29.591133 80.692162 29.583126
v 17.520733 85.910278 34.801197
v 0.007990 71.651215 47.501530
v 0.008028 88.473938 37.364925
v -18.920643 70.258629 44.264595
v -17.504656 85.910233 34.801208
v -34.793209 68.621826 34.801109
v -29.575039 80.692131 29.583149
v -18.892654 95.516426 18.972454
v -34.793194 85.910233 17.512672
v 0.008003 98.738281 20.334059
v 0.008056 102.164375 -0.000064
v -20.325979 98.738220 0.000004
v -37.356873 88.473938 -0.000003
v 18.916082 95.526558 18.907946
v 34.809219 85.910278 17.512796
v 37.372898 88.474068 -0.000062
v 20.342031 98.738281 -0.000029
v 18.980669 95.516487 -18.900568
v 0.008202 98.738281 -20.334064
v 34.809143 85.910339 -17.512842
v 29.591047 80.692322 -29.583075
v 17.520718 85.910370 -34.801144
v 0.008024 88.473976 -37.364895
v -18.953632 95.481506 -18.961668
v -34.793156 85.910278 -17.512722
v -17.504589 85.910278 -34.801235
v -29.575060 80.692131 -29.583153
v -18.892593 70.081543 -44.407394
v -34.793179 68.621735 -34.801193
v 0.008048 71.443100 -47.629196
v 0.008047 51.109032 -51.055355
v -20.326017 51.109032 -47.629189
v -37.356873 51.109032 -37.364910
v 18.916115 70.017075 -44.417419
v 34.809258 68.621735 -34.801220
v 37.372963 51.109032 -37.364914
v 20.342113 51.109032 -47.629192
v 18.980518 32.208382 -44.407406
v 0.008061 30.775002 -47.629200
v 34.809246 33.596333 -34.801224
v 29.591143 21.525902 -29.583099
v 17.520746 16.307793 -34.801197
v 0.008055 13.744093 -37.364910
v -18.953699 32.147289 -44.372364
v -34.793182 33.596397 -34.801216
v -17.504671 16.307825 -34.801201
v -29.575060 21.525902 -29.583097
v -18.920610 6.844414 -19.149607
v -34.691631 16.409393 -17.760115
v 0.008044 3.607498 -20.542191
v 18.936710 6.844414 -19.149599
v 34.809200 16.307793 -17.512762
v 47.637249 30.775032 -0.000018
v 44.494637 32.420929 18.688099
v 51.063454 51.108749 0.000005
v 47.637245 51.109062 20.334024
v 37.492737 14.044535 -0.250019
v 44.425446 32.200806 -18.908009
v 47.637245 51.109032 -20.334040
v 44.415436 70.009682 -18.972500
v 47.637245 71.443062 0.000011
v 37.492741 51.359085 37.064510
v 44.380524 70.070549 18.961782
v -44.399345 32.136490 -18.900648
v -47.667603 31.039734 -0.000112
v -51.047298 51.109032 -0.000017
v -47.621147 51.109032 -20.334061
v -44.494827 32.421463 18.687572
v -47.621155 51.108971 20.334063
v -44.399349 70.009651 18.972555
v -47.621155 71.443062 0.000013
v -37.484772 51.359306 37.064289
v -44.364235 70.070808 -18.961815
vt 0.436486 0.347769
vt 0.497186 0.342175
vt 0.501614 0.427536
vt 0.409174 0.431877
vt 0.569770 0.329900
vt 0.585583 0.411653
vt 0.605542 0.504030
vt 0.504247 0.521374
vt 0.297165 0.759074
vt 0.392596 0.527893
vt 0.641932 0.315976
vt 0.666790 0.391607
vt 0.702199 0.303764
vt 0.322940 0.769055
vt 0.744107 0.355251
vt 0.301928 0.802794
vt 0.274061 0.804775
vt 0.270589 0.747645
vt 0.241927 0.794487
vt 0.248316 0.729184
vt 0.218141 0.770557
vt 0.227697 0.710777
vt 0.207220 0.744842
vt 0.176456 0.797572
vt 0.178718 0.748042
vt 0.212532 0.842526
vt 0.182572 0.895329
vt 0.117294 0.789501
vt 0.144812 0.738953
vt 0.269027 0.854355
vt 0.312052 0.829629
vt 0.335578 0.855683
vt 0.306737 0.905420
vt 0.010851 0.730265
vt 0.368787 0.867820
vt 0.398054 0.866376
vt 0.041568 0.680068
vt 0.075094 0.742651
vt 0.118888 0.714908
vt 0.076835 0.691011
vt 0.106853 0.688192
vt 0.100813 0.641941
vt 0.128286 0.652496
vt 0.072284 0.629869
vt 0.104515 0.577195
vt 0.130604 0.593267
vt 0.155095 0.608423
vt 0.420083 0.831044
vt 0.447122 0.787113
vt 0.136185 0.525438
vt 0.473664 0.743478
vt 0.494471 0.708805
vt 0.165580 0.477398
vt 0.160049 0.545343
vt 0.181867 0.564929
vt 0.191639 0.503390
vt 0.203270 0.530621
vt 0.234982 0.480467
vt 0.231497 0.529892
vt 0.194242 0.430557
vt 0.524694 0.657740
vt 0.481951 0.682881
vt 0.795625 0.432765
vt 0.701295 0.474461
vt 0.731885 0.570362
vt 0.400167 0.696168
vt 0.427780 0.706439
vt 0.631138 0.608719
vt 0.825949 0.527753
vt 0.522106 0.624265
vt 0.412553 0.632280
vt 0.415773 0.089593
vt 0.518045 0.058424
vt 0.537593 0.160714
vt 0.443684 0.184662
vt 0.317675 0.131544
vt 0.353428 0.220950
vt 0.623098 0.051721
vt 0.724558 0.052028
vt 0.735647 0.149315
vt 0.397316 0.756576
vt 0.372207 0.741375
vt 0.455796 0.660171
vt 0.451290 0.725036
vt 0.422756 0.772148
vt 0.393511 0.819649
vt 0.366043 0.807334
vt 0.348704 0.727949
vt 0.343595 0.787771
vt 0.208571 0.576306
vt 0.235350 0.589544
vt 0.204955 0.638873
vt 0.179511 0.623307
vt 0.257427 0.608847
vt 0.229919 0.654310
vt 0.201727 0.700732
vt 0.173995 0.689821
vt 0.252564 0.669123
vt 0.634239 0.149483
vt 0.150417 0.671139
vt 0.297527 0.758395
vt 0.322926 0.768985
vt 0.635549 0.237467
vt 0.270962 0.747037
vt 0.248756 0.728552
vt 0.227767 0.710757
vt 0.235747 0.480296
vt 0.232119 0.529889
vt 0.194614 0.429948
vt 0.524498 0.656980
vt 0.481991 0.682784
vt 0.400142 0.695231
vt 0.427845 0.706188
vt 0.372170 0.741197
vt 0.455748 0.659111
vt 0.348733 0.727035
vt 0.208605 0.576184
vt 0.235926 0.588754
vt 0.258274 0.608442
vt 0.230095 0.654262
vt 0.253365 0.668681
vt 0.273407 0.486796
vt 0.317552 0.372059
vt 0.214229 0.166268
vt 0.255771 0.271828
vt 0.879450 0.361060
vt 0.840694 0.180497
vt 0.807300 0.281687
vt 0.395082 0.298492
vt 0.474169 0.266582
vt 0.554564 0.250194
vt 0.720036 0.240073
vt 0.404287 0.971007
vt 0.363819 0.919480
vt 0.435004 0.920809
vt 0.409207 0.894388
vt 0.465720 0.870610
vt 0.442082 0.850537
vt 0.497951 0.817936
vt 0.471765 0.802022
vt 0.529621 0.766179
vt 0.500934 0.754167
vt 0.559016 0.718139
vt 0.524011 0.706767
vt 0.588050 0.670689
vt 0.587678 0.671298
vn -0.577350 -0.577350 0.577350
vn -0.313219 -0.671526 0.671526
vn -0.329342 -0.329303 0.884926
vn -0.671613 -0.313082 0.671502
vn 0.000000 -0.707107 0.707107
vn -0.000000 -0.345160 0.938544
vn -0.000022 0.000000 1.000000
vn -0.345215 0.000074 0.938524
vn -0.647223 -0.065415 0.759489
vn 0.313220 -0.671526 0.671526
vn 0.329322 -0.329322 0.884926
vn 0.577350 -0.577350 0.577350
vn 0.671479 -0.313267 0.671550
vn 0.647112 -0.065744 0.759555
vn 0.345134 -0.000074 0.938554
vn 0.329148 0.181613 0.926649
vn 0.000045 0.172889 0.984941
vn 0.513461 0.188758 0.837095
vn 0.318984 0.513223 0.796775
vn 0.729797 0.365707 0.577629
vn 0.577292 0.578001 0.576758
vn 0.313626 0.672442 0.670418
vn -0.000000 0.522868 0.852413
vn 0.000252 0.708054 0.706159
vn -0.329088 0.181841 0.926626
vn -0.513533 0.189096 0.836975
vn -0.318985 0.513224 0.796775
vn -0.313555 0.672086 0.670808
vn -0.729498 0.366015 0.577811
vn -0.577586 0.577587 0.576878
vn -0.329494 0.884648 0.329896
vn -0.671537 0.671537 0.313171
vn 0.000157 0.938406 0.345533
vn -0.000299 1.000000 -0.000297
vn -0.345578 0.938390 -0.000139
vn -0.707107 0.707106 0.000203
vn 0.329555 0.884753 0.329554
vn 0.671331 0.671649 0.313373
vn 0.707349 0.706864 0.000149
vn 0.345532 0.938407 0.000160
vn 0.329897 0.884649 -0.329492
vn -0.000139 0.938390 -0.345578
vn 0.671882 0.671132 -0.313299
vn 0.577173 0.577171 -0.577707
vn 0.313369 0.671492 -0.671490
vn 0.000352 0.707347 -0.706866
vn -0.329890 0.884503 -0.329889
vn -0.671536 0.671536 -0.313177
vn -0.313300 0.671719 -0.671295
vn -0.577292 0.577292 -0.577467
vn -0.329493 0.329897 -0.884648
vn -0.671374 0.313174 -0.671698
vn 0.000160 0.345533 -0.938407
vn -0.000298 -0.000297 -1.000000
vn -0.345578 -0.000140 -0.938390
vn -0.707107 0.000000 -0.707107
vn 0.329555 0.329556 -0.884752
vn 0.671089 0.313497 -0.671833
vn 0.707107 -0.000000 -0.707106
vn 0.345533 0.000159 -0.938406
vn 0.329897 -0.329493 -0.884648
vn -0.000140 -0.345578 -0.938390
vn 0.671833 -0.313496 -0.671089
vn 0.577942 -0.576700 -0.577409
vn 0.313427 -0.670463 -0.672490
vn 0.000102 -0.705916 -0.708296
vn -0.329891 -0.329891 -0.884502
vn -0.671576 -0.312800 -0.671670
vn -0.313055 -0.670499 -0.672627
vn -0.577397 -0.576686 -0.577967
vn -0.317413 -0.797363 -0.513284
vn -0.612697 -0.610396 -0.502016
vn -0.000000 -0.852413 -0.522869
vn -0.329056 -0.926627 -0.181890
vn 0.000045 -0.984942 -0.172888
vn -0.000022 -1.000000 0.000000
vn -0.345185 -0.938535 -0.000073
vn -0.693650 -0.693599 -0.194345
vn -0.707178 -0.707036 -0.000155
vn 0.318985 -0.796775 -0.513224
vn 0.729878 -0.577388 -0.365926
vn 0.329149 -0.926649 -0.181613
vn 0.513461 -0.837095 -0.188758
vn 0.647112 -0.759555 0.065744
vn 0.345134 -0.938554 0.000074
vn 0.329322 -0.884926 0.329321
vn -0.000000 -0.938544 0.345159
vn 0.671479 -0.671550 0.313267
vn -0.329321 -0.884926 0.329321
vn -0.671573 -0.671501 0.313172
vn 0.826335 -0.398228 0.398228
vn 0.836925 -0.513587 0.189167
vn 0.970473 -0.170561 0.170561
vn 0.956487 -0.285221 -0.061503
vn 1.000000 0.000821 -0.000227
vn 0.956519 0.061828 0.285041
vn 0.836925 -0.189167 0.513587
vn 0.836993 -0.513612 -0.188802
vn 0.884839 -0.328850 -0.330028
vn 0.938406 -0.000159 -0.345534
vn 0.884648 0.329494 -0.329897
vn 0.938390 0.345579 0.000139
vn 0.836993 0.188802 0.513612
vn 0.884590 0.330363 0.329183
vn -0.889682 -0.259790 -0.375466
vn -0.852510 -0.522711 -0.000180
vn -0.837115 -0.513280 -0.189164
vn -0.984957 -0.172786 -0.002148
vn -0.999999 0.001437 -0.000863
vn -0.938283 0.000441 -0.345868
vn -0.826541 -0.397943 0.398085
vn -0.837121 -0.188617 0.513471
vn -0.970612 -0.170164 0.170164
vn -0.956516 0.062032 0.285008
vn -0.884739 0.330011 0.329136
vn -0.938390 0.345578 -0.000141
vn -0.836845 0.188360 0.514014
vn -0.884502 0.329891 -0.329891
vn 0.089526 -0.878748 0.468815
vn 0.153716 -0.903228 0.400689
vn 0.153716 -0.903228 0.400689
vn 0.090514 -0.879184 0.467806
vn 0.000001 -0.848110 0.529820
vn -0.000001 -0.848110 0.529820
vn -0.089527 -0.878747 0.468816
vn -0.090516 -0.879183 0.467807
vn -0.153719 -0.903223 0.400697
vn -0.153719 -0.903224 0.400697
vn -0.117787 -0.505183 0.854937
vn -0.306119 -0.324895 0.894838
vn -0.306108 -0.324913 0.894835
vn -0.119234 -0.504752 0.854990
vn -0.000000 -0.529829 0.848105
vn -0.000000 -0.529829 0.848105
vn 0.089524 -0.468811 0.878750
vn 0.090510 -0.467803 0.879186
vn 0.153707 -0.400676 0.903235
vn 0.153707 -0.400676 0.903235
vn -0.273939 -0.961223 0.031753
vn -0.273939 -0.961223 0.031753
vn -0.273939 -0.961223 0.031753
vn -0.273939 -0.961223 0.031753
vn -0.273947 -0.031753 0.961221
vn -0.273947 -0.031753 0.961221
vn -0.273947 -0.031753 0.961221
vn -0.273947 -0.031753 0.961221
vn -0.622378 -0.782578 -0.014765
vn -0.622378 -0.782578 -0.014765
vn -0.622378 -0.782578 -0.014765
vn -0.622378 -0.782578 -0.014765
vn 0.077524 -0.054351 0.995508
vn 0.077524 -0.054351 0.995508
vn 0.077524 -0.054351 0.995508
vn 0.077524 -0.054351 0.995508
vn 0.077538 -0.995506 0.054361
vn 0.077538 -0.995506 0.054361
vn 0.077538 -0.995506 0.054361
vn 0.077538 -0.995506 0.054361
vn -0.622368 0.014770 0.782586
vn -0.622368 0.014770 0.782586
vn -0.622368 0.014770 0.782586
vn -0.622368 0.014770 0.782586
vn -0.390015 -0.165231 0.905862
vn -0.390015 -0.165231 0.905862
vn 0.284774 -0.958484 -0.014543
vn 0.231267 -0.972788 0.014109
vn 0.231258 -0.972790 0.014113
vn 0.284774 -0.958484 -0.014543
vn 0.176182 -0.983415 0.043059
vn 0.176182 -0.983415 0.043059
vn 0.273774 -0.032039 0.961260
vn 0.273774 -0.032039 0.961260
vn 0.273774 -0.032039 0.961260
vn 0.273774 -0.032039 0.961260
vn -0.077592 -0.995502 0.054365
vn -0.077592 -0.995502 0.054365
vn -0.077592 -0.995502 0.054365
vn -0.077592 -0.995502 0.054365
vn 0.622217 0.014515 0.782710
vn 0.622217 0.014515 0.782710
vn 0.622217 0.014515 0.782710
vn 0.622217 0.014515 0.782710
s 1
g headpos
usemtl lambert7SG
f 1/1/1 30/2/2 32/3/3 31/4/4
f 30/2/2 6/5/5 10/6/6 32/3/3
f 32/3/3 10/6/6 8/7/7 11/8/8
f 31/4/4 32/3/3 11/8/8 7/10/9
f 6/5/5 12/11/10 33/12/11 10/6/6
f 12/11/10 2/13/12 13/15/13 33/12/11
f 33/12/11 13/15/13 3/63/14 14/64/15
f 10/6/6 33/12/11 14/64/15 8/7/7
f 8/7/7 14/64/15 34/65/16 15/68/17
f 14/64/15 3/63/14 16/69/18 34/65/16
s 2
f 44/9/19 43/14/20 45/16/21 46/17/22
f 47/18/23 44/9/19 46/17/22 48/19/24
s 1
f 7/10/9 11/8/8 35/70/25 17/71/26
f 11/8/8 8/7/7 15/68/17 35/70/25
s 2
f 49/20/27 47/18/23 48/19/24 50/21/28
f 51/22/29 49/20/27 50/21/28 52/23/30
f 52/23/30 50/21/28 53/24/31 54/25/32
f 50/21/28 48/19/24 55/26/33 53/24/31
f 53/24/31 55/26/33 56/27/34 57/28/35
f 54/25/32 53/24/31 57/28/35 58/29/36
f 48/19/24 46/17/22 59/30/37 55/26/33
f 46/17/22 45/16/21 60/31/38 59/30/37
f 59/30/37 60/31/38 61/32/39 62/33/40
f 55/26/33 59/30/37 62/33/40 56/27/34
f 56/27/34 62/33/40 63/134/41 64/133/42
f 62/33/40 61/32/39 65/35/43 63/134/41
f 63/134/41 65/35/43 66/36/44 67/136/45
f 64/133/42 63/134/41 67/136/45 68/135/46
f 58/29/36 57/28/35 69/38/47 70/39/48
f 57/28/35 56/27/34 64/34/42 69/38/47
f 69/38/47 64/34/42 68/37/46 71/40/49
f 70/39/48 69/38/47 71/40/49 72/41/50
f 72/41/50 71/40/49 73/42/51 74/43/52
f 71/40/49 68/37/46 75/44/53 73/42/51
f 73/42/51 75/44/53 76/45/54 77/46/55
f 74/43/52 73/42/51 77/46/55 78/47/56
f 68/135/46 67/136/45 79/138/57 75/137/53
f 67/136/45 66/36/44 80/48/58 79/138/57
f 79/138/57 80/48/58 81/49/59 82/140/60
f 75/137/53 79/138/57 82/140/60 76/139/54
f 76/139/54 82/140/60 83/142/61 84/141/62
f 82/140/60 81/49/59 85/51/63 83/142/61
f 83/142/61 85/51/63 86/52/64 87/144/65
f 84/141/62 83/142/61 87/144/65 88/143/66
f 78/47/56 77/46/55 89/54/67 90/55/68
f 77/46/55 76/45/54 84/50/62 89/54/67
f 89/54/67 84/50/62 88/53/66 91/56/69
f 90/55/68 89/54/67 91/56/69 92/57/70
f 92/57/70 91/56/69 93/58/71 94/59/72
f 91/56/69 88/53/66 95/60/73 93/58/71
s 1
f 36/72/74 19/73/75 9/74/76 20/75/77
f 18/76/78 36/72/74 20/75/77 4/77/79
s 2
f 88/143/66 87/144/65 96/61/80 95/146/73
f 87/144/65 86/52/64 97/62/81 96/61/80
s 1
f 37/78/82 21/79/83 5/80/84 22/99/85
f 19/73/75 37/78/82 22/99/85 9/74/76
f 9/74/76 22/99/85 38/103/86 23/131/87
f 22/99/85 5/80/84 24/132/88 38/103/86
f 38/103/86 24/132/88 2/13/12 12/11/10
f 23/131/87 38/103/86 12/11/10 6/5/5
f 4/77/79 20/75/77 39/130/89 25/129/90
f 20/75/77 9/74/76 23/131/87 39/130/89
f 39/130/89 23/131/87 6/5/5 30/2/2
f 25/129/90 39/130/89 30/2/2 1/1/1
f 2/13/12 24/132/88 40/128/91 13/15/13
f 24/132/88 5/80/84 26/127/92 40/128/91
s 2
f 99/66/93 98/67/94 100/81/95 101/82/96
s 1
f 13/15/13 40/128/91 27/126/97 3/63/14
s 2
f 102/83/98 97/62/81 103/84/99 98/67/94
f 97/62/81 86/52/64 85/51/63 103/84/99
f 103/84/99 85/51/63 81/49/59 104/85/100
f 98/67/94 103/84/99 104/85/100 100/81/95
f 100/81/95 104/85/100 105/86/101 106/87/102
f 104/85/100 81/49/59 80/48/58 105/86/101
f 105/86/101 80/48/58 66/36/44 65/35/43
f 106/87/102 105/86/101 65/35/43 61/32/39
f 107/88/103 101/82/96 108/89/104 43/14/20
f 101/82/96 100/81/95 106/87/102 108/89/104
f 108/89/104 106/87/102 61/32/39 60/31/38
f 43/14/20 108/89/104 60/31/38 45/16/21
f 92/57/70 94/59/72 109/90/105 90/55/68
s 1
f 18/76/78 4/77/79 28/125/106 41/124/107
s 2
f 109/90/105 110/91/108 111/92/109 112/93/110
f 90/55/68 109/90/105 112/93/110 78/47/56
s 1
f 4/77/79 25/129/90 42/123/111 28/125/106
f 25/129/90 1/1/1 31/4/4 42/123/111
f 42/123/111 31/4/4 7/10/9 29/122/112
s 2
f 110/91/108 113/94/113 114/95/114 111/92/109
f 111/92/109 114/95/114 115/96/115 116/97/116
f 114/95/114 117/98/117 51/22/29 115/96/115
f 115/96/115 51/22/29 52/23/30 54/25/32
f 116/97/116 115/96/115 54/25/32 58/29/36
f 78/47/56 112/93/110 118/100/118 74/43/52
f 112/93/110 111/92/109 116/97/116 118/100/118
f 118/100/118 116/97/116 58/29/36 70/39/48
f 74/43/52 118/100/118 70/39/48 72/41/50
s 7
f 34/101/119 16/102/120 43/14/121 44/9/122
f 15/104/123 34/101/119 44/9/122 47/18/124
f 35/105/125 15/104/123 47/18/124 49/20/126
f 17/106/127 35/105/125 49/20/126 51/22/128
s 8
f 36/107/129 18/108/130 94/59/131 93/58/132
f 19/109/133 36/107/129 93/58/132 95/60/134
f 37/110/135 19/145/133 95/146/134 96/61/136
f 21/111/137 37/110/135 96/61/136 97/62/138
s off
f 40/112/139 26/113/140 98/67/141 99/66/142
f 27/114/143 40/112/144 99/66/145 101/82/146
f 5/115/147 21/111/148 97/62/149 102/83/150
f 26/113/151 5/115/152 102/83/153 98/67/154
f 3/116/155 27/114/156 101/82/157 107/88/158
f 16/102/159 3/116/160 107/88/161 43/14/162
s 8
f 18/108/130 41/117/163 109/90/164 94/59/131
s 9
f 41/117/165 28/118/166 110/91/167 109/90/168
f 28/118/166 42/119/169 113/94/170 110/91/167
s off
f 42/119/171 29/120/172 114/95/173 113/94/174
f 29/120/175 7/121/176 117/98/177 114/95/178
f 7/121/179 17/106/180 51/22/181 117/98/182
