# This file uses centimeters as units for non-parametric coordinates.

mtllib lleg.mtl
g default
v -21.865988 -143.219070 16.664526
v -17.882284 -139.946945 -16.262403
v -10.300707 -6.628631 12.369555
v -10.300703 -6.628631 -12.369550
v 10.300746 6.628600 12.369554
v 10.300734 6.628584 -12.369550
v 21.865967 -143.219070 16.664522
v 17.882273 -139.946945 -16.262402
v -13.730415 -39.727840 14.050287
v 13.730414 -33.957184 14.050287
v 13.730414 -33.957184 -14.050285
v -13.730413 -39.727840 -14.050287
v -16.221586 -71.764771 15.884452
v 16.221586 -71.764771 15.884447
v 16.221582 -71.764771 -15.884451
v -16.221586 -71.764771 -15.884447
v -15.583666 -102.428337 15.041047
v 15.583660 -102.428337 15.041049
v 17.273788 -102.401222 -15.037201
v -17.273792 -102.401222 -15.037201
v -17.733833 -91.888077 -15.372234
v -17.525011 -91.888077 15.372236
v 17.525000 -91.888077 15.372234
v 17.733826 -91.888077 -15.372234
v -17.193962 -97.784233 -13.887801
v -15.733392 -97.784233 13.887802
v 15.733384 -97.784233 13.887805
v 17.193951 -97.784233 -13.887798
v 17.080896 -108.866180 16.844358
v -17.080898 -108.866180 16.844362
v -18.871737 -108.162682 -16.741642
v 18.871737 -108.162682 -16.741642
v -18.189323 -103.406380 -16.061224
v -21.904970 -102.414780 0.001922
v -13.558725 -8.725157 0.000004
v 0.000010 0.000000 16.281918
v 0.000010 0.000000 -16.281914
v 13.558702 8.725220 0.000004
v 21.904966 -102.414780 0.001922
v 16.416214 -103.514824 16.076603
v 18.189323 -103.406380 -16.061226
v 23.968428 -108.514435 0.051360
v -0.000006 -108.045425 -22.339308
v 0.000002 -102.396706 -20.050247
v -0.000006 -108.983437 22.442028
v -0.000002 -102.432854 20.054090
v -0.000006 -36.842514 18.733717
v 12.026632 -11.588921 12.995166
v -12.026645 -21.118570 12.995169
v 12.026640 -11.588936 -12.995165
v 18.307215 -32.995396 0.000002
v -0.000002 -36.842514 -18.733715
v -12.026645 -21.118570 -12.995166
v -18.307219 -40.689625 0.000002
v 0.000002 -71.764771 21.179272
v 15.059670 -53.957996 15.186495
v -15.059675 -57.749165 15.186493
v 15.059670 -53.957996 -15.186487
v 21.628777 -71.764771 0.000004
v 0.000002 -71.764771 -21.179262
v -15.059679 -57.749165 -15.186487
v -21.628778 -71.764771 0.000004
v 15.336145 -100.249046 14.177421
v -15.336158 -100.249046 14.177419
v -0.000006 -97.784233 18.517069
v 21.951551 -97.784233 0.000004
v 17.001879 -100.249046 -14.177417
v -17.001890 -100.249046 -14.177417
v -0.000006 -97.784233 -18.517063
v -21.951567 -97.784233 0.000004
v -23.505890 -91.888077 -0.000000
v -16.687105 -83.393120 15.417047
v -16.687105 -83.393120 -15.417044
v -0.000006 -91.888077 20.496311
v 16.687103 -83.393120 15.417048
v 16.687103 -83.393120 -15.417043
v 23.505888 -91.888077 -0.000000
v -0.000006 -91.888077 -20.496311
v -16.835060 -95.841187 14.574282
v -17.670366 -95.841187 -14.574281
v 16.835043 -95.841187 14.574281
v 17.670351 -95.841187 -14.574279
v 23.009125 -141.583023 0.201060
v 22.987192 -160.704025 16.531406
v 18.161024 -160.704010 -16.531391
v -0.000010 -139.401596 -21.750227
v -18.161034 -160.704010 -16.531399
v -23.009148 -141.583023 0.201064
v -22.987206 -160.704025 16.531406
v 16.824799 -128.979935 16.904587
v -16.824820 -128.979935 16.904593
v -18.444290 -121.568314 -16.570593
v 18.444275 -121.568314 -16.570593
v -23.968420 -108.514435 0.051360
v -16.416214 -103.514824 16.076603
v -23.070358 -103.460602 0.007688
v -0.000010 0.000031 0.000003
v 23.070351 -103.460602 0.007688
v 0.000002 -103.388306 -21.417532
v 0.000002 -103.532898 21.432905
v -0.000006 -16.353745 17.326891
v 16.035526 -10.000677 0.000002
v -0.000002 -16.353745 -17.326887
v -16.035528 -22.706861 0.000002
v -0.000006 -55.853580 20.248659
v 20.079573 -53.326130 0.000004
v 0.000002 -55.853580 -20.248652
v -20.079571 -58.381023 0.000006
v -0.000002 -100.249046 18.903225
v 21.558689 -100.249046 -0.000000
v -0.000006 -100.249046 -18.903221
v -21.558697 -100.249046 -0.000000
v -22.249468 -83.393120 0.000004
v 0.000002 -83.393120 20.556061
v 22.249464 -83.393120 0.000004
v 0.000002 -83.393120 -20.556057
v -23.003613 -95.841187 -0.000000
v -0.000006 -95.841187 19.432377
v 23.003599 -95.841187 0.000004
v -0.000006 -95.841187 -19.432367
v 23.763510 -160.704025 0.000008
v -0.000006 -160.704010 -22.041861
v -23.763521 -160.704025 0.000004
v -0.000002 -124.218704 22.483789
v -23.512739 -122.704193 0.167002
v -0.000006 -121.189667 -22.149790
v 23.512722 -122.704193 0.166998
v -0.000002 -160.704041 22.041876
v -0.000006 -160.704025 0.000007
v 21.945223 -141.727234 40.342537
v 0.000002 -127.518723 40.342575
v 16.361349 -132.110123 40.342537
v -21.945234 -141.727234 40.342533
v -16.361361 -132.110107 40.342533
v -0.000006 -160.637268 40.342575
v -22.401808 -160.637253 40.342529
v 22.401796 -160.637253 40.342537
v 17.511946 -145.647079 65.190041
v -0.000006 -146.389252 65.190109
v -0.000014 -134.054230 62.747402
v 12.830518 -137.784042 60.803600
v -17.511974 -145.647079 65.190056
v -12.830515 -137.784042 60.803604
v -0.000014 -160.732056 65.190094
v -14.844313 -160.732040 65.190041
v 14.844301 -160.732040 65.190041
vt 0.322307 0.555999
vt 0.255205 0.552844
vt 0.254050 0.571417
vt 0.320423 0.575349
vt 0.195744 0.549207
vt 0.194722 0.565758
vt 0.194517 0.571488
vt -1.521855 -0.239576
vt 0.319551 0.581432
vt 0.983480 0.329098
vt 0.960853 0.247095
vt 0.871925 0.304452
vt 0.929845 0.394244
vt 0.598106 0.937732
vt 0.813995 0.214651
vt 0.760359 0.279817
vt 0.783007 0.361818
vt 0.848380 0.416244
vt -1.257719 -0.208525
vt -1.304142 -0.223090
vt 0.496402 0.598812
vt 0.439596 0.587297
vt -1.350502 -0.231092
vt 0.551484 0.612754
vt 0.557028 0.596959
vt 0.500147 0.582269
vt 0.442416 0.569558
vt 0.128849 0.547523
vt 0.128765 0.564037
vt 0.059317 0.547310
vt 0.061160 0.564830
vt -1.405855 -0.236854
vt 0.383464 0.561147
vt 0.381390 0.580199
vt -1.638111 -0.223397
vt 0.439006 0.592920
vt 0.429375 0.813209
vt 0.424815 0.891056
vt 0.380271 0.874259
vt 0.379356 0.802980
vt 0.335263 0.859108
vt 0.329079 0.794685
vt 0.381142 0.931792
vt 0.341397 0.909846
vt 0.420056 0.955145
vt 0.471676 0.900200
vt 0.464454 0.966079
vt 0.519555 0.901198
vt 0.510226 0.965124
vt 0.480056 0.820368
vt 0.634972 0.825594
vt 0.583011 0.823584
vt 0.567152 0.894101
vt 0.615186 0.888641
vt 0.531343 0.823567
vt 0.553525 0.950897
vt 0.287753 0.859268
vt 0.278075 0.797243
vt 0.242302 0.874024
vt 0.228105 0.809926
vt 0.295742 0.908222
vt 0.253033 0.924307
vt 0.435646 0.683699
vt 0.432548 0.744388
vt 0.378518 0.737671
vt 0.377907 0.683737
vt 0.324248 0.732779
vt 0.320332 0.685099
vt 0.486999 0.750386
vt 0.665664 0.716556
vt 0.607578 0.704903
vt 0.596851 0.758669
vt 0.652382 0.764299
vt 0.541819 0.754934
vt 0.492965 0.687049
vt 0.550145 0.694264
vt -1.640142 -0.231851
vt -1.695482 -0.217241
vt -1.582247 -0.244501
vt -1.581903 -0.254219
vt -1.642324 -0.240779
vt -1.699350 -0.225129
vt -1.256717 -0.222964
vt -1.300670 -0.236972
vt -1.302513 -0.229492
vt -1.257709 -0.215547
vt -1.346363 -0.245735
vt -1.348502 -0.237965
vt -1.405184 -0.244642
vt -1.465574 -0.248928
vt -1.404382 -0.252932
vt -1.466301 -0.258022
vt -1.522048 -0.250088
vt -1.522323 -0.259522
vt -1.584127 -0.277932
vt -1.522610 -0.282307
vt 0.269299 0.736342
vt -1.463149 -0.279446
vt 0.675363 0.676697
vt -1.709843 -0.244962
vt -1.647969 -0.262653
vt 0.263261 0.690133
vt 0.214714 0.747928
vt 0.205591 0.699368
vt 0.312776 0.615357
vt 0.316229 0.645173
vt -1.344779 -0.264890
vt -1.296199 -0.255029
vt -1.249122 -0.240576
vt -1.402036 -0.273301
vt 0.615017 0.665209
vt 0.258527 0.649697
vt -1.522383 -0.267688
vt -1.581810 -0.263012
vt -1.465593 -0.265542
vt -1.644261 -0.248409
vt -1.704388 -0.231621
vt -1.299129 -0.243455
vt -1.254080 -0.229413
vt -1.345539 -0.252381
vt -1.403604 -0.260032
vt 0.468279 0.453267
vt 0.522430 0.472084
vt 0.872091 0.178053
vt 0.692895 0.326194
vt 0.064203 0.432538
vt 0.911503 0.183098
vt 0.131974 0.436146
vt 0.940901 0.151448
vt 0.200356 0.436548
vt 0.947796 0.108762
vt 0.264587 0.433276
vt 0.919525 0.080866
vt 0.229912 0.310692
vt 0.884970 0.065992
vt 0.594364 0.341469
vt -0.877240 -0.546268
vt 0.411257 0.320900
vt 0.509660 0.351856
vt 0.310095 0.334701
vt 0.260230 0.502419
vt 0.197771 0.502879
vt 0.129835 0.501545
vt 0.060980 0.498939
vt 0.509487 0.535764
vt 0.453486 0.502719
vt 0.566894 0.552046
vt 0.850722 0.107431
vt 0.895821 0.129438
vt 0.419230 0.222241
vt 0.508729 0.223078
vt 0.566466 0.213692
vt 0.276455 0.191888
vt 0.331224 0.209571
vt 0.813361 0.089179
vt 0.835661 0.043384
vt 0.668481 0.191527
vt 0.428489 0.095521
vt -0.904942 -0.607900
vt -0.940374 -0.584830
vt 0.310871 0.058481
vt -0.809978 -0.553837
vt 0.762526 0.064376
vt -0.853261 -0.462399
vt -0.961859 -0.524001
vt 0.254978 0.619599
vt 0.201417 0.658664
vt 0.198073 0.628794
vt 0.441311 0.613581
vt 0.438683 0.643549
vt 0.377401 0.643825
vt 0.377001 0.614051
vt 0.496654 0.646437
vt 0.554390 0.653941
vt 0.499348 0.616174
vt 0.556666 0.623759
vt 0.620566 0.635842
vt 0.684469 0.647948
vt 0.895486 0.192645
vt 0.253888 0.577174
vt -1.582448 -0.235942
vt -1.464543 -0.240891
vt 0.128730 0.569943
vt 0.063372 0.570596
vt 0.380753 0.586323
vt -1.693336 -0.209307
vt 0.747708 0.094672
vt -0.907479 -0.493333
vt 0.790958 0.134926
vt 0.777311 0.034089
vt 0.181144 0.156188
vt 0.839077 0.159936
vt 0.327359 0.364494
vt 0.266716 0.362580
vt 0.202922 0.360490
vt 0.133928 0.358672
vt 0.595845 0.421265
vt 0.537623 0.407728
vt 0.495058 0.603834
vt 0.547793 0.617321
vt 0.327920 0.484314
vt 0.390060 0.508501
vt 0.482352 0.394990
vt 0.579374 0.490367
vt 0.065106 0.357254
vt 0.326030 0.428726
vt 0.138277 0.280252
vt 0.234130 0.023011
vt 0.353170 0.095959
vt -0.812069 -0.511615
vt 0.551260 0.074413
vt 0.633827 0.049455
vt -0.851070 -0.592377
vt 0.503365 0.106305
vn -0.682130 0.034588 0.730413
vn -0.641312 0.305874 0.703676
vn -0.952140 0.299383 0.061640
vn -0.996716 0.023032 0.077635
vn -0.649499 0.328570 -0.685706
vn -0.692378 0.029309 -0.720939
vn -0.866297 0.496582 0.054186
vn -0.510910 0.620603 -0.594831
vn -0.526639 0.586535 0.615328
vn -0.722560 0.487264 0.490388
vn -0.258162 0.592207 0.763311
vn -0.541146 0.840929 -0.000000
vn -0.868265 0.496101 -0.000000
vn -0.258162 0.592207 -0.763311
vn -0.722560 0.487264 -0.490388
vn 0.621559 0.783367 -0.000000
vn 0.407434 0.713513 -0.569997
vn 0.407434 0.713513 0.569997
vn 0.526639 0.586535 0.615328
vn 0.641312 0.305875 0.703676
vn 0.952139 0.299384 0.061640
vn 0.866296 0.496583 0.054185
vn 0.649498 0.328571 -0.685706
vn 0.510909 0.620602 -0.594831
vn 0.996716 0.023032 0.077635
vn 0.692379 0.029308 -0.720939
vn 0.682130 0.034587 0.730412
vn 0.000000 0.334771 -0.942299
vn -0.000000 0.035244 -0.999379
vn 0.000000 0.625877 -0.779922
vn 0.000000 0.310253 0.950654
vn -0.000000 0.041642 0.999133
vn -0.000000 0.613330 0.789827
vn 0.716765 0.087775 0.691768
vn 0.739083 0.093219 0.667133
vn 0.009498 0.072797 0.997302
vn -0.002242 0.078094 0.996944
vn -0.724887 0.111468 0.679789
vn -0.715011 0.099608 0.691980
vn 0.994419 0.105499 0.000000
vn 0.739084 0.093219 -0.667132
vn 0.995890 0.090572 0.000000
vn 0.716765 0.087775 -0.691768
vn -0.715011 0.099608 -0.691981
vn -0.724887 0.111468 -0.679789
vn 0.009498 0.072797 -0.997302
vn -0.002243 0.078094 -0.996943
vn -0.991543 0.129780 -0.000000
vn -0.994388 0.105791 -0.000000
vn 0.701798 0.043046 0.711074
vn 0.710015 0.081609 0.699442
vn 0.005118 0.072457 0.997358
vn 0.009391 0.018113 0.999792
vn -0.699317 0.093024 0.708733
vn -0.686781 0.048062 0.725274
vn 0.996502 0.083570 -0.000000
vn 0.710015 0.081609 -0.699442
vn 0.997916 0.064529 -0.000000
vn 0.701798 0.043046 -0.711074
vn -0.686780 0.048062 -0.725274
vn -0.699317 0.093024 -0.708733
vn 0.005118 0.072457 -0.997358
vn 0.009391 0.018113 -0.999792
vn -0.994839 0.101466 0.000000
vn -0.997153 0.075406 0.000000
vn 0.644496 0.176249 0.744017
vn 0.000000 0.282918 0.959144
vn -0.644497 0.176249 0.744016
vn -0.000000 -0.166736 0.986002
vn -0.629312 -0.276341 0.726362
vn 0.629313 -0.276340 0.726362
vn 0.997431 0.041137 0.058640
vn 0.950818 -0.306131 0.047213
vn 0.649121 0.199186 -0.734143
vn 0.654495 -0.215145 -0.724810
vn -0.649123 0.199184 -0.734143
vn -0.000000 0.289855 -0.957071
vn 0.000000 -0.133326 -0.991072
vn -0.654495 -0.215145 -0.724809
vn -0.997431 0.041136 0.058640
vn -0.950818 -0.306132 0.047212
vn -0.673433 -0.025510 0.738808
vn -0.680005 0.027291 0.732699
vn -0.996993 0.077472 0.001449
vn -0.999120 0.041252 0.007582
vn -0.678311 0.030562 -0.734139
vn -0.667985 -0.008039 -0.744131
vn 0.673432 -0.025511 0.738809
vn 0.680005 0.027291 0.732699
vn 0.000000 -0.019449 0.999811
vn -0.000000 -0.074157 0.997247
vn 0.996994 0.077472 0.001449
vn 0.678311 0.030562 -0.734139
vn 0.999120 0.041251 0.007582
vn 0.667985 -0.008039 -0.744131
vn 0.000000 -0.017837 -0.999841
vn -0.000000 -0.065939 -0.997824
vn -0.626749 -0.316638 0.711988
vn -0.966821 -0.254432 0.022819
vn -0.640590 -0.262210 -0.721727
vn 0.626748 -0.316639 0.711988
vn 0.000000 -0.312594 0.949887
vn 0.966821 -0.254434 0.022820
vn 0.640589 -0.262212 -0.721727
vn 0.000000 -0.287583 -0.957756
vn 0.984383 0.087787 0.152588
vn 0.996889 0.050526 0.060499
vn 0.989531 0.039306 -0.138867
vn 0.995127 0.045178 -0.087640
vn 0.675523 0.023689 -0.736958
vn 0.681749 -0.002457 -0.731582
vn 0.000000 0.015351 -0.999882
vn 0.000000 -0.003420 -0.999994
vn -0.675523 0.023688 -0.736958
vn -0.681749 -0.002457 -0.731582
vn -0.989531 0.039306 -0.138868
vn -0.995127 0.045178 -0.087640
vn -0.996889 0.050525 0.060499
vn -0.984383 0.087787 0.152588
vn 0.034040 0.123400 0.991773
vn 0.093296 0.338237 0.936425
vn 0.000000 0.339719 0.940527
vn 0.000000 0.133878 0.990998
vn -0.093295 0.338238 0.936425
vn -0.034039 0.123399 0.991773
vn 0.000000 0.000497 1.000000
vn -0.821684 0.050073 0.567740
vn 0.821684 0.050072 0.567740
vn -0.999579 0.004123 0.028723
vn -0.690203 -0.029393 -0.723018
vn 0.000000 -0.021567 -0.999767
vn 0.690203 -0.029394 -0.723018
vn 0.999579 0.004122 0.028723
vn -0.000003 -0.000001 1.000000
vn 0.000000 -0.000001 1.000000
vn 0.000004 -0.000001 1.000000
vn -0.000000 -1.000000 -0.000001
vn -0.000000 -1.000000 -0.000001
vn 0.000000 -1.000000 -0.000001
vn 0.000000 -1.000000 -0.000001
vn 0.000000 -1.000000 -0.000001
vn 0.000000 -1.000000 -0.000001
vn -0.000000 -0.999998 0.001871
vn -0.000166 -0.999999 0.001361
vn 0.000166 -0.999999 0.001361
vn 0.000000 0.987568 0.157191
vn 0.000000 0.974976 0.222310
vn 0.286881 0.933734 0.214101
vn 0.291511 0.944676 0.150364
vn 0.913363 0.406574 0.021585
vn 0.879485 0.462037 0.114139
vn 0.973826 0.190982 0.123243
vn 0.981785 0.189453 0.014332
vn -0.981785 0.189453 0.014332
vn -0.973826 0.190982 0.123243
vn -0.879485 0.462037 0.114140
vn -0.913363 0.406574 0.021586
vn -0.291510 0.944676 0.150365
vn -0.286881 0.933735 0.214101
vn 0.000000 -1.000000 -0.000266
vn -0.000218 -1.000000 0.000123
vn -0.999021 0.043276 0.009227
vn -0.992696 -0.010056 0.120219
vn 0.992697 -0.010056 0.120219
vn 0.999021 0.043276 0.009227
vn 0.000218 -1.000000 0.000123
vn 0.000000 0.955155 0.296106
vn 0.280283 0.916870 0.284238
vn 0.804497 0.536434 0.254997
vn 0.965350 0.090411 0.244796
vn -0.965350 0.090411 0.244796
vn -0.804497 0.536434 0.254997
vn -0.280283 0.916870 0.284236
vn 0.000000 -0.999993 -0.003814
vn -0.000001 -0.999993 -0.003814
vn -0.971313 -0.063176 0.229261
vn 0.971313 -0.063175 0.229262
vn 0.000001 -0.999993 -0.003815
s 1
g llegpos
usemtl lambert6SG
f 30/1/1 95/4/2 96/3/3 94/2/4
f 94/2/4 96/3/3 33/6/5 31/5/6
f 96/3/3 34/180/7 20/7/8 33/6/5
f 95/4/2 17/9/9 34/180/7 96/3/3
f 3/10/10 36/13/11 97/12/12 35/11/13
f 35/11/13 97/12/12 37/15/14 4/179/15
f 97/12/12 38/17/16 6/16/17 37/15/14
f 36/13/11 5/18/18 38/17/16 97/12/12
f 18/36/19 40/22/20 98/21/21 39/199/22
f 39/199/22 98/21/21 41/24/23 19/200/24
f 98/21/21 42/26/25 32/25/26 41/24/23
f 40/22/20 29/27/27 42/26/25 98/21/21
f 31/5/6 33/6/5 99/29/28 43/28/29
f 43/28/29 99/29/28 41/31/23 32/30/26
f 99/29/28 44/183/30 19/184/24 41/31/23
f 33/6/5 20/7/8 44/183/30 99/29/28
f 29/27/27 40/22/20 100/34/31 45/33/32
f 45/33/32 100/34/31 95/4/2 30/1/1
f 100/34/31 46/185/33 17/9/9 95/4/2
f 40/22/20 18/36/19 46/185/33 100/34/31
f 10/37/34 48/38/35 101/39/36 47/40/37
f 47/40/37 101/39/36 49/41/38 9/42/39
f 101/39/36 36/43/11 3/44/10 49/41/38
f 48/38/35 5/45/18 36/43/11 101/39/36
f 5/45/18 48/38/35 102/46/40 38/47/16
f 38/47/16 102/46/40 50/48/41 6/49/17
f 102/46/40 51/50/42 11/55/43 50/48/41
f 48/38/35 10/37/34 51/50/42 102/46/40
f 12/51/44 53/54/45 103/53/46 52/52/47
f 52/52/47 103/53/46 50/48/41 11/55/43
f 103/53/46 37/56/14 6/49/17 50/48/41
f 53/54/45 4/14/15 37/56/14 103/53/46
f 9/42/39 49/41/38 104/57/48 54/58/49
f 54/58/49 104/57/48 53/59/45 12/60/44
f 104/57/48 35/61/13 4/62/15 53/59/45
f 49/41/38 3/44/10 35/61/13 104/57/48
f 14/63/50 56/64/51 105/65/52 55/66/53
f 55/66/53 105/65/52 57/67/54 13/68/55
f 105/65/52 47/40/37 9/42/39 57/67/54
f 56/64/51 10/37/34 47/40/37 105/65/52
f 10/37/34 56/64/51 106/69/56 51/50/42
f 51/50/42 106/69/56 58/74/57 11/55/43
f 106/69/56 59/75/58 15/76/59 58/74/57
f 56/64/51 14/63/50 59/75/58 106/69/56
f 16/70/60 61/73/61 107/72/62 60/71/63
f 60/71/63 107/72/62 58/74/57 15/76/59
f 107/72/62 52/52/47 11/55/43 58/74/57
f 61/73/61 12/51/44 52/52/47 107/72/62
f 13/68/55 57/67/54 108/97/64 62/102/65
f 62/102/65 108/97/64 61/103/61 16/104/60
f 108/97/64 54/58/49 12/60/44 61/103/61
f 57/67/54 9/42/39 54/58/49 108/97/64
f 18/186/19 63/78/66 109/77/67 46/35/33
f 46/35/33 109/77/67 64/79/68 17/181/9
f 109/77/67 65/81/69 26/80/70 64/79/68
f 63/78/66 27/82/71 65/81/69 109/77/67
f 27/83/71 63/86/66 110/85/72 66/84/73
f 66/84/73 110/85/72 67/88/74 28/87/75
f 110/85/72 39/20/22 19/23/24 67/88/74
f 63/86/66 18/19/19 39/20/22 110/85/72
f 20/182/8 68/90/76 111/89/77 44/32/30
f 44/32/30 111/89/77 67/88/74 19/23/24
f 111/89/77 69/91/78 28/87/75 67/88/74
f 68/90/76 25/92/79 69/91/78 111/89/77
f 17/181/9 64/79/68 112/93/80 34/8/7
f 34/8/7 112/93/80 68/90/76 20/182/8
f 112/93/80 70/94/81 25/92/79 68/90/76
f 64/79/68 26/80/70 70/94/81 112/93/80
f 22/105/82 72/106/83 113/112/84 71/166/85
f 71/166/85 113/112/84 73/167/86 21/168/87
f 113/112/84 62/102/65 16/104/60 73/167/86
f 72/106/83 13/68/55 62/102/65 113/112/84
f 23/169/88 75/170/89 114/171/90 74/172/91
f 74/172/91 114/171/90 72/106/83 22/105/82
f 114/171/90 55/66/53 13/68/55 72/106/83
f 75/170/89 14/63/50 55/66/53 114/171/90
f 14/63/50 75/170/89 115/173/92 59/75/58
f 59/75/58 115/173/92 76/174/93 15/76/59
f 115/173/92 77/175/94 24/176/95 76/174/93
f 75/170/89 23/169/88 77/175/94 115/173/92
f 21/178/87 73/99/86 116/111/96 78/177/97
f 78/177/97 116/111/96 76/174/93 24/176/95
f 116/111/96 60/71/63 15/76/59 76/174/93
f 73/99/86 16/70/60 60/71/63 116/111/96
f 26/80/70 79/114/98 117/113/99 70/94/81
f 70/94/81 117/113/99 80/115/100 25/92/79
f 117/113/99 71/96/85 21/98/87 80/115/100
f 79/114/98 22/95/82 71/96/85 117/113/99
f 27/82/71 81/117/101 118/116/102 65/81/69
f 65/81/69 118/116/102 79/114/98 26/80/70
f 118/116/102 74/101/91 22/95/82 79/114/98
f 81/117/101 23/100/88 74/101/91 118/116/102
f 23/109/88 81/119/101 119/118/103 77/108/94
f 77/108/94 119/118/103 82/120/104 24/107/95
f 119/118/103 66/84/73 28/87/75 82/120/104
f 81/119/101 27/83/71 66/84/73 119/118/103
f 25/92/79 80/115/100 120/121/105 69/91/78
f 69/91/78 120/121/105 82/120/104 28/87/75
f 120/121/105 78/110/97 24/107/95 82/120/104
f 80/115/100 21/98/87 78/110/97 120/121/105
f 7/122/106 84/203/107 121/198/108 83/123/109
f 83/123/109 121/198/108 85/197/110 8/204/111
f 8/126/111 85/205/110 122/196/112 86/128/113
f 86/128/113 122/196/112 87/195/114 2/130/115
f 2/130/115 87/195/114 123/194/116 88/132/117
f 88/132/117 123/194/116 89/193/118 1/206/119
s 11
f 138/160/120 141/159/121 140/213/122 139/137/123
f 139/137/123 140/213/122 143/162/124 142/210/125
s 1
f 124/202/126 45/33/32 30/1/1 91/201/127
f 90/146/128 29/27/27 45/33/32 124/202/126
f 1/206/119 91/201/127 125/141/129 88/132/117
f 88/132/117 125/141/129 92/142/130 2/130/115
f 125/141/129 94/2/4 31/5/6 92/142/130
f 91/201/127 30/1/1 94/2/4 125/141/129
f 2/130/115 92/142/130 126/143/131 86/128/113
f 86/128/113 126/143/131 93/144/132 8/126/111
f 126/143/131 43/28/29 32/30/26 93/144/132
f 92/142/130 31/5/6 43/28/29 126/143/131
f 29/27/27 90/146/128 127/145/133 42/26/25
f 42/26/25 127/145/133 93/147/132 32/25/26
f 127/145/133 83/123/109 8/204/111 93/147/132
f 90/146/128 7/122/106 83/123/109 127/145/133
s 11
f 142/210/125 145/164/134 144/188/135 139/137/123
f 139/137/123 144/188/135 146/165/136 138/160/120
s 12
f 123/133/137 87/131/138 122/129/139 129/149/140
f 129/149/140 122/129/139 85/127/141 121/124/142
f 128/148/143 89/135/144 123/133/137 129/149/140
f 84/192/145 128/148/143 129/149/140 121/124/142
s 13
f 124/138/146 131/150/147 132/151/148 90/139/149
s 14
f 90/139/150 132/151/151 130/152/152 7/136/153
s 15
f 1/134/154 133/153/155 134/154/156 91/140/157
s 13
f 91/140/158 134/154/159 131/150/147 124/138/146
s 12
f 128/148/143 135/155/160 136/156/161 89/135/144
s 15
f 89/207/162 136/191/163 133/153/155 1/134/154
s 14
f 7/136/153 130/152/152 137/157/164 84/125/165
s 12
f 84/192/145 137/189/166 135/155/160 128/148/143
s 13
f 131/150/147 140/158/167 141/214/168 132/151/148
s 14
f 132/151/151 141/214/169 138/211/170 130/152/152
s 15
f 133/153/155 142/161/171 143/209/172 134/154/156
s 13
f 134/154/159 143/209/173 140/158/167 131/150/147
s 12
f 135/155/160 144/163/174 145/190/175 136/156/161
s 15
f 136/191/163 145/208/176 142/161/171 133/153/155
s 14
f 130/152/152 138/211/170 146/212/177 137/157/164
s 12
f 137/189/166 146/187/178 144/163/174 135/155/160
